<svg width="27" height="26" viewBox="0 0 27 26" fill="none" xmlns="http://www.w3.org/2000/svg">
<path d="M13.6875 6.61133C10.0625 6.61133 7.17383 9.55664 7.17383 13.125C7.17383 16.75 10.0625 19.6387 13.6875 19.6387C17.2559 19.6387 20.2012 16.75 20.2012 13.125C20.2012 9.55664 17.2559 6.61133 13.6875 6.61133ZM13.6875 17.373C11.3652 17.373 9.43945 15.5039 9.43945 13.125C9.43945 10.8027 11.3086 8.93359 13.6875 8.93359C16.0098 8.93359 17.8789 10.8027 17.8789 13.125C17.8789 15.5039 16.0098 17.373 13.6875 17.373ZM21.957 6.38477C21.957 5.53516 21.2773 4.85547 20.4277 4.85547C19.5781 4.85547 18.8984 5.53516 18.8984 6.38477C18.8984 7.23438 19.5781 7.91406 20.4277 7.91406C21.2773 7.91406 21.957 7.23438 21.957 6.38477ZM26.2617 7.91406C26.1484 5.875 25.6953 4.0625 24.2227 2.58984C22.75 1.11719 20.9375 0.664062 18.8984 0.550781C16.8027 0.4375 10.5156 0.4375 8.41992 0.550781C6.38086 0.664062 4.625 1.11719 3.0957 2.58984C1.62305 4.0625 1.16992 5.875 1.05664 7.91406C0.943359 10.0098 0.943359 16.2969 1.05664 18.3926C1.16992 20.4316 1.62305 22.1875 3.0957 23.7168C4.625 25.1895 6.38086 25.6426 8.41992 25.7559C10.5156 25.8691 16.8027 25.8691 18.8984 25.7559C20.9375 25.6426 22.75 25.1895 24.2227 23.7168C25.6953 22.1875 26.1484 20.4316 26.2617 18.3926C26.375 16.2969 26.375 10.0098 26.2617 7.91406ZM23.543 20.6016C23.1465 21.7344 22.2402 22.584 21.1641 23.0371C19.4648 23.7168 15.5 23.5469 13.6875 23.5469C11.8184 23.5469 7.85352 23.7168 6.21094 23.0371C5.07812 22.584 4.22852 21.7344 3.77539 20.6016C3.0957 18.959 3.26562 14.9941 3.26562 13.125C3.26562 11.3125 3.0957 7.34766 3.77539 5.64844C4.22852 4.57227 5.07812 3.72266 6.21094 3.26953C7.85352 2.58984 11.8184 2.75977 13.6875 2.75977C15.5 2.75977 19.4648 2.58984 21.1641 3.26953C22.2402 3.66602 23.0898 4.57227 23.543 5.64844C24.2227 7.34766 24.0527 11.3125 24.0527 13.125C24.0527 14.9941 24.2227 18.959 23.543 20.6016Z" fill="#928A88"/>
</svg>
