<svg width="48" height="48" viewBox="0 0 48 48" fill="none" xmlns="http://www.w3.org/2000/svg">
<path d="M36.4032 18.9281H18.0282C17.1001 18.9281 16.3501 18.0844 16.3501 17.0531C16.3501 16.0219 17.1001 15.1781 18.0282 15.1781H36.4032C37.3314 15.1781 38.0814 16.0219 38.0814 17.0531C38.0814 18.0844 37.3314 18.9281 36.4032 18.9281Z" fill="#928A88"/>
<path d="M12.3 19.4438C13.6204 19.4438 14.6907 18.3734 14.6907 17.0531C14.6907 15.7328 13.6204 14.6625 12.3 14.6625C10.9797 14.6625 9.90942 15.7328 9.90942 17.0531C9.90942 18.3734 10.9797 19.4438 12.3 19.4438Z" fill="#928A88"/>
<path d="M36.4032 25.875H18.0282C17.1001 25.875 16.3501 25.0312 16.3501 24C16.3501 22.9688 17.1001 22.125 18.0282 22.125H36.4032C37.3314 22.125 38.0814 22.9688 38.0814 24C38.0814 25.0312 37.3314 25.875 36.4032 25.875Z" fill="#928A88"/>
<path d="M12.3 26.3906C13.6204 26.3906 14.6907 25.3203 14.6907 24C14.6907 22.6797 13.6204 21.6094 12.3 21.6094C10.9797 21.6094 9.90942 22.6797 9.90942 24C9.90942 25.3203 10.9797 26.3906 12.3 26.3906Z" fill="#928A88"/>
<path d="M36.4032 32.8219H18.0282C17.1001 32.8219 16.3501 31.9781 16.3501 30.9469C16.3501 29.9156 17.1001 29.0719 18.0282 29.0719H36.4032C37.3314 29.0719 38.0814 29.9156 38.0814 30.9469C38.0814 31.9781 37.3314 32.8219 36.4032 32.8219Z" fill="#928A88"/>
<path d="M12.3 33.3375C13.6204 33.3375 14.6907 32.2672 14.6907 30.9469C14.6907 29.6266 13.6204 28.5563 12.3 28.5563C10.9797 28.5563 9.90942 29.6266 9.90942 30.9469C9.90942 32.2672 10.9797 33.3375 12.3 33.3375Z" fill="#928A88"/>
</svg>
