<svg width="296" height="145" viewBox="0 0 296 145" fill="none" xmlns="http://www.w3.org/2000/svg">
<g clip-path="url(#clip0_171_1686)">
<path d="M295.963 143.605C298.017 145.465 212.453 145.465 214.513 143.605C212.46 141.745 298.023 141.745 295.963 143.605Z" fill="#E6E6E6"/>
<path d="M267.563 89.3209C272.091 95.7125 273.288 132.09 273.554 143.75C273.561 144.013 273.568 144.262 273.571 144.498H285.034C285.174 144.249 285.304 144.003 285.427 143.75C292.222 130.36 288.452 114.304 288.254 113.492C288.77 116.044 286.435 123.443 283.797 130.609C282.187 108.574 268.424 90.4334 267.563 89.3209Z" fill="#E6E6E6"/>
<path d="M52.2515 18.2181C43.2774 30.8844 40.9069 102.974 40.3786 126.081C40.3651 126.602 40.3516 127.096 40.3448 127.562H17.6287C17.351 127.069 17.0936 126.582 16.8498 126.081C3.38535 99.5449 10.8558 67.727 11.2486 66.1175C10.226 71.1759 14.8518 85.8371 20.0804 100.039C23.2704 56.3726 50.5447 20.4227 52.2515 18.2181Z" fill="#E6E6E6"/>
<path d="M157.778 126.816C161.754 131.396 -3.91766 131.396 0.070886 126.815C-3.9056 122.236 161.766 122.236 157.778 126.816Z" fill="#E6E6E6"/>
<path d="M243.329 124.251C242.692 124.251 242.679 126.231 243.329 126.231H267.117C267.396 126.24 267.625 125.804 267.63 125.257C267.635 124.699 267.401 124.24 267.117 124.251H243.329Z" fill="#3F3D56"/>
<path d="M250.84 116.875C250.014 116.875 250.009 118.856 250.84 118.856H259.598C259.956 118.864 260.252 118.428 260.258 117.882C260.264 117.324 259.964 116.865 259.598 116.875H250.84Z" fill="#6C63FF"/>
<path d="M243.329 131.899C242.692 131.899 242.679 133.879 243.329 133.879H267.117C267.396 133.888 267.625 133.452 267.63 132.905C267.635 132.347 267.401 131.889 267.117 131.899H243.329Z" fill="#3F3D56"/>
<path d="M272.199 107.076H238.277C237.914 107.076 237.566 107.22 237.31 107.476C237.053 107.732 236.909 108.079 236.909 108.442V142.312C236.909 142.675 237.053 143.022 237.31 143.278C237.566 143.534 237.914 143.678 238.277 143.678H272.199C272.562 143.678 272.91 143.534 273.166 143.278C273.423 143.022 273.567 142.675 273.567 142.312V108.442C273.567 108.079 273.423 107.732 273.166 107.476C272.91 107.22 272.562 107.076 272.199 107.076ZM273.02 142.312C273.019 142.53 272.933 142.738 272.779 142.891C272.625 143.045 272.417 143.131 272.199 143.132H238.277C238.06 143.131 237.851 143.045 237.697 142.891C237.544 142.738 237.457 142.53 237.456 142.312V108.442C237.457 108.224 237.544 108.016 237.697 107.863C237.851 107.709 238.06 107.623 238.277 107.622H272.199C272.417 107.623 272.625 107.709 272.779 107.863C272.933 108.016 273.019 108.224 273.02 108.442V142.312Z" fill="#3F3D56"/>
<path d="M225.352 80.1901L228.104 78.8162L225.81 72.6337L225.206 69.5157C225.127 69.1106 224.944 68.7332 224.673 68.4212C224.403 68.1092 224.055 67.8735 223.665 67.7376C223.275 67.6018 222.856 67.5706 222.45 67.6471C222.044 67.7236 221.665 67.9052 221.351 68.1738C220.886 68.5717 220.595 69.1344 220.537 69.7431C220.48 70.3518 220.662 70.959 221.044 71.4364L223.288 74.2365L225.352 80.1901Z" fill="#A0616A"/>
<path d="M224.434 79.5031L224.941 81.0893L227.219 88.2151C227.442 88.9137 227.862 89.5333 228.429 89.9994C228.996 90.4655 229.685 90.7585 230.415 90.8431C231.144 90.9277 231.882 90.8004 232.541 90.4764C233.2 90.1524 233.751 89.6455 234.129 89.0165L241.513 76.38C241.631 76.183 241.732 75.9763 241.814 75.762C242.171 74.8268 242.153 73.7903 241.764 72.8679C241.376 71.9455 240.646 71.2081 239.727 70.809C238.808 70.4098 237.77 70.3796 236.829 70.7246C235.889 71.0696 235.117 71.7633 234.675 72.6615L230.167 82.2512L228.104 77.6717L224.434 79.5031Z" fill="#E6E6E6"/>
<path d="M225.497 125.533L230.542 125.991L233.294 106.069C242.365 107.593 250.923 108.081 258.326 106.238C258.951 106.084 259.538 105.803 260.05 105.412C260.561 105.021 260.986 104.529 261.298 103.966C261.61 103.404 261.802 102.782 261.862 102.142C261.922 101.502 261.849 100.856 261.647 100.245C260.762 97.605 259.201 94.7759 257.374 91.8722L245.219 96.2229L244.76 98.0548L231.796 96.4162C231.141 96.3334 230.477 96.3876 229.844 96.5751C229.211 96.7627 228.625 97.0796 228.121 97.5057C227.618 97.9318 227.209 98.4578 226.92 99.0503C226.631 99.6427 226.469 100.289 226.444 100.947L225.497 125.533Z" fill="#2F2E41"/>
<path d="M220.002 129.393C219.953 129.052 220.004 128.705 220.147 128.391C220.29 128.078 220.52 127.813 220.809 127.626L225.988 125.088L229.893 125.58L230.815 128.881C230.854 129.116 230.845 129.357 230.788 129.589C230.731 129.82 230.627 130.037 230.483 130.228C230.339 130.418 230.158 130.577 229.95 130.695C229.743 130.813 229.513 130.887 229.276 130.914L221.99 130.93C221.523 130.982 221.055 130.851 220.684 130.564C220.313 130.277 220.068 129.857 220.002 129.393Z" fill="#2F2E41"/>
<path d="M224.222 122.986L229.267 123.444L232.019 103.522C241.091 105.046 249.649 105.534 257.051 103.691C257.676 103.537 258.263 103.256 258.775 102.865C259.286 102.474 259.712 101.982 260.024 101.419C260.335 100.856 260.527 100.235 260.588 99.595C260.648 98.9546 260.575 98.3087 260.373 97.6979C259.487 95.0579 257.926 92.2288 256.099 89.3251L243.944 93.6758L243.486 95.5076L230.521 93.8691C229.867 93.7863 229.202 93.8404 228.569 94.028C227.937 94.2156 227.35 94.5325 226.847 94.9586C226.343 95.3847 225.934 95.9107 225.645 96.5031C225.357 97.0956 225.194 97.7416 225.169 98.4L224.222 122.986Z" fill="#2F2E41"/>
<path d="M218.727 126.846C218.679 126.505 218.729 126.157 218.872 125.844C219.015 125.531 219.245 125.266 219.535 125.079L224.714 122.541L228.619 123.033L229.541 126.334C229.58 126.569 229.57 126.81 229.513 127.041C229.456 127.273 229.352 127.49 229.208 127.68C229.064 127.871 228.883 128.03 228.676 128.148C228.468 128.266 228.239 128.34 228.002 128.367L220.716 128.383C220.249 128.435 219.78 128.304 219.409 128.017C219.038 127.73 218.793 127.31 218.727 126.846Z" fill="#2F2E41"/>
<path d="M233.395 68.4876C236.815 68.4876 239.587 65.7195 239.587 62.305C239.587 58.8905 236.815 56.1224 233.395 56.1224C229.976 56.1224 227.203 58.8905 227.203 62.305C227.203 65.7195 229.976 68.4876 233.395 68.4876Z" fill="#A0616A"/>
<path d="M233.625 74.899L240.734 73.9831L237.982 65.5107H231.102L233.625 74.899Z" fill="#A0616A"/>
<path d="M231.69 83.442C232.051 84.4419 232.573 85.3759 233.237 86.2066C234.184 87.3665 235.321 88.3571 236.601 89.136C236.823 89.2802 237.054 89.4182 237.294 89.5542L238.66 90.7161L243.485 94.8198L256.787 89.7829C253.853 83.273 250.193 78.127 245.998 73.9821C245.127 72.7059 243.885 71.727 242.439 71.1775C240.993 70.6279 239.414 70.534 237.913 70.9084L232.936 72.1507C231.166 76.3223 230.508 80.1582 231.69 83.442Z" fill="#E6E6E6"/>
<path d="M220.855 65.6272C220.777 65.5508 220.675 65.5033 220.567 65.4926C220.459 65.482 220.35 65.5088 220.259 65.5686C220.137 65.6969 216.153 68.0538 216.403 68.2876C216.396 68.3585 216.404 68.4302 216.428 68.4974C216.452 68.5645 216.491 68.6255 216.542 68.6757L225.8 77.8797C225.845 77.9244 225.898 77.9598 225.957 77.9838C226.016 78.0077 226.079 78.0196 226.142 78.019C226.328 78.2566 229.363 74.8039 229.516 74.7378C229.604 74.6468 229.652 74.5248 229.65 74.3986C229.648 74.2723 229.596 74.1518 229.506 74.0634L220.855 65.6272Z" fill="#3F3D56"/>
<path d="M217.335 68.1893L217.712 67.9495C217.674 68.0201 217.661 68.1013 217.675 68.1801C217.689 68.259 217.728 68.331 217.788 68.385C217.847 68.4389 217.922 68.4716 218.002 68.478C218.082 68.4843 218.162 68.4639 218.229 68.42L220.667 66.7465C220.721 66.708 220.764 66.6551 220.79 66.5937C220.817 66.5324 220.825 66.4649 220.816 66.3989C220.806 66.3329 220.778 66.2709 220.735 66.2199C220.692 66.1688 220.635 66.1306 220.572 66.1096C220.668 66.0769 220.824 65.8812 220.929 66.0044L229.131 74.0521C229.423 74.1941 226.151 77.0254 226.149 77.1366C225.905 77.4084 217.492 68.3978 217.313 68.3916C217.299 68.3778 217.289 68.361 217.282 68.3426C217.276 68.3242 217.274 68.3045 217.276 68.2851C217.278 68.2657 217.284 68.247 217.295 68.2305C217.305 68.2139 217.319 68.1998 217.335 68.1893Z" fill="white"/>
<path d="M226.801 72.2751L224.285 74.6436L218.301 68.7402L221.338 66.7661L226.801 72.2751Z" fill="#6C63FF"/>
<path d="M218.534 70.1971C218.677 70.0925 218.038 69.628 218.01 69.5516C217.994 69.5358 217.972 69.527 217.949 69.527C217.926 69.527 217.904 69.5358 217.887 69.5516C217.744 69.6562 218.383 70.1207 218.41 70.1971C218.427 70.2129 218.449 70.2217 218.472 70.2217C218.495 70.2217 218.517 70.2129 218.534 70.1971Z" fill="#E6E6E6"/>
<path d="M219.415 70.9543C219.336 70.9253 218.875 70.2903 218.769 70.4318C218.626 70.5364 219.264 71.0009 219.292 71.0773C219.371 71.158 219.496 71.0331 219.415 70.9543Z" fill="#E6E6E6"/>
<path d="M226.155 74.3082C226.144 75.0696 227.342 75.0696 227.331 74.3082C227.342 73.5468 226.144 73.5468 226.155 74.3082Z" fill="#6C63FF"/>
<path opacity="0.2" d="M233.237 86.2066C234.184 87.3665 235.321 88.3571 236.6 89.136C236.823 89.2802 237.054 89.4183 237.294 89.5542L238.659 90.7161C241.37 87.1584 241.218 76.3491 241.218 76.3491L237.091 76.7611L233.237 86.2066Z" fill="black"/>
<path d="M225.139 83.3715L227.891 81.9976L225.598 75.815L224.994 72.6971C224.915 72.292 224.731 71.9146 224.461 71.6026C224.191 71.2906 223.843 71.0549 223.453 70.919C223.063 70.7832 222.644 70.752 222.238 70.8285C221.832 70.905 221.453 71.0866 221.139 71.3552C220.674 71.7531 220.382 72.3158 220.325 72.9245C220.268 73.5332 220.449 74.1404 220.832 74.6178L223.075 77.4179L225.139 83.3715Z" fill="#A0616A"/>
<path d="M227.891 80.8526L224.222 82.6844L227.007 91.3964C227.206 92.022 227.565 92.5854 228.047 93.0319C228.529 93.4785 229.119 93.7931 229.759 93.9452C230.548 94.1327 231.376 94.0645 232.123 93.7505C232.871 93.4364 233.499 92.8928 233.916 92.1985L241.3 79.5611C241.823 78.6903 241.985 77.6498 241.75 76.6617C241.515 75.6736 240.903 74.8163 240.044 74.2729C239.581 73.9807 239.063 73.7889 238.522 73.71C237.98 73.6311 237.428 73.6669 236.902 73.815C236.375 73.9632 235.886 74.2204 235.466 74.5699C235.045 74.9193 234.703 75.3533 234.462 75.8434L229.955 85.4323L227.891 80.8526Z" fill="#E6E6E6"/>
<path d="M231.065 59.8969C230.56 60.317 229.991 60.6526 229.378 60.8906C229.071 61.0074 228.742 61.0557 228.414 61.0322C228.086 61.0087 227.767 60.9139 227.48 60.7545C227.165 60.5285 226.917 60.2222 226.761 59.8675C226.605 59.5128 226.547 59.1228 226.594 58.7384C226.699 57.9691 227.009 57.2419 227.491 56.6326C228.322 55.4783 229.415 54.5367 230.68 53.8847C231.945 53.2326 233.347 52.8886 234.771 52.8808C236.194 52.8729 237.6 53.2014 238.872 53.8394C240.145 54.4775 241.248 55.407 242.092 56.552C242.707 57.3186 243.085 58.2475 243.18 59.2252C243.269 60.9428 242.092 62.5462 242.218 64.2615C242.324 65.7122 243.367 66.955 244.602 67.7264C245.837 68.4977 247.265 68.8888 248.646 69.352C250.027 69.8153 251.423 70.3869 252.445 71.4234C253.467 72.46 254.031 74.0684 253.47 75.4109C253.009 76.514 251.914 77.2155 250.815 77.6906C247.869 78.95 244.561 79.074 241.529 78.0386C240.411 77.6517 239.191 76.8776 239.174 75.6965C239.166 75.1839 239.397 74.7026 239.536 74.209C239.675 73.7154 239.701 73.1266 239.353 72.7497C238.921 72.2821 238.124 72.3898 237.608 72.7627C237.092 73.1355 236.757 73.7011 236.331 74.1741C235.523 75.0722 234.298 75.6459 233.101 75.4768C231.904 75.3076 230.822 74.2893 230.772 73.083C230.687 71.0109 233.287 69.7135 233.57 67.6589C233.759 66.2867 232.864 65.0313 232.089 63.8827C231.313 62.7341 230.592 61.295 231.135 60.0203" fill="#2F2E41"/>
<path d="M144.781 125.952H42.6139C42.1123 125.951 41.6314 125.752 41.2767 125.398C40.922 125.044 40.7225 124.564 40.7219 124.063V36.8291C40.7225 36.3282 40.922 35.848 41.2767 35.4939C41.6314 35.1398 42.1123 34.9405 42.6139 34.9399H144.781C145.282 34.9405 145.763 35.1397 146.118 35.4939C146.473 35.848 146.672 36.3282 146.673 36.8291V124.063C146.672 124.564 146.473 125.044 146.118 125.398C145.763 125.752 145.282 125.951 144.781 125.952ZM42.6139 35.6956C42.3129 35.6959 42.0244 35.8154 41.8116 36.0279C41.5988 36.2404 41.479 36.5285 41.4787 36.8291V124.063C41.479 124.363 41.5988 124.651 41.8116 124.864C42.0244 125.076 42.3129 125.196 42.6139 125.196H144.781C145.082 125.196 145.37 125.076 145.583 124.864C145.796 124.651 145.916 124.363 145.916 124.063V36.8291C145.916 36.5285 145.796 36.2404 145.583 36.0279C145.37 35.8154 145.082 35.6959 144.781 35.6956H42.6139Z" fill="#3F3D56"/>
<path d="M58.4887 118.135C62.7451 118.135 66.1956 114.689 66.1956 110.439C66.1956 106.189 62.7451 102.744 58.4887 102.744C54.2322 102.744 50.7817 106.189 50.7817 110.439C50.7817 114.689 54.2322 118.135 58.4887 118.135Z" fill="#E6E6E6"/>
<path d="M76.288 105.309C75.9476 105.31 75.6214 105.445 75.3809 105.686C75.1404 105.926 75.0054 106.252 75.0054 106.592C75.0054 106.932 75.1404 107.258 75.3809 107.498C75.6214 107.738 75.9476 107.874 76.288 107.874H136.842C137.183 107.874 137.51 107.739 137.751 107.499C137.991 107.258 138.127 106.932 138.127 106.592C138.127 106.252 137.991 105.925 137.751 105.685C137.51 105.444 137.183 105.309 136.842 105.309H76.288Z" fill="#E6E6E6"/>
<path d="M76.2879 113.004C75.9472 113.004 75.6205 113.14 75.3796 113.38C75.1387 113.621 75.0034 113.947 75.0034 114.287C75.0034 114.627 75.1387 114.953 75.3796 115.194C75.6205 115.434 75.9472 115.569 76.2879 115.569H102.345C102.513 115.57 102.681 115.537 102.837 115.472C102.993 115.408 103.135 115.314 103.254 115.194C103.374 115.075 103.468 114.934 103.533 114.778C103.598 114.622 103.631 114.456 103.631 114.287C103.631 114.118 103.598 113.951 103.533 113.796C103.468 113.64 103.374 113.499 103.254 113.379C103.135 113.26 102.993 113.166 102.837 113.101C102.681 113.037 102.513 113.004 102.345 113.004H76.2879Z" fill="#E6E6E6"/>
<path d="M169.055 95.5258H66.8876C66.386 95.5252 65.9051 95.326 65.5504 94.9718C65.1957 94.6177 64.9962 94.1375 64.9956 93.6367V48.8685C64.9962 48.3676 65.1957 47.8875 65.5504 47.5333C65.9051 47.1792 66.386 46.98 66.8876 46.9794H169.055C169.556 46.98 170.037 47.1792 170.392 47.5333C170.746 47.8875 170.946 48.3676 170.946 48.8685V93.6367C170.946 94.1375 170.746 94.6177 170.392 94.9718C170.037 95.326 169.556 95.5252 169.055 95.5258Z" fill="#6C63FF"/>
<path d="M87.6937 62.5836C87.3534 62.5841 87.0272 62.7195 86.7867 62.9599C86.5462 63.2004 86.4111 63.5263 86.4111 63.8662C86.4111 64.206 86.5462 64.5319 86.7867 64.7724C87.0272 65.0129 87.3534 65.1482 87.6937 65.1487H148.248C148.588 65.1482 148.915 65.0129 149.155 64.7724C149.396 64.5319 149.531 64.206 149.531 63.8662C149.531 63.5263 149.396 63.2004 149.155 62.9599C148.915 62.7195 148.588 62.5841 148.248 62.5836H87.6937Z" fill="white"/>
<path d="M87.6937 70.015C87.3534 70.0155 87.0272 70.1509 86.7867 70.3913C86.5462 70.6318 86.4111 70.9577 86.4111 71.2976C86.4111 71.6374 86.5462 71.9633 86.7867 72.2038C87.0272 72.4443 87.3534 72.5796 87.6937 72.5801H148.248C148.588 72.5796 148.915 72.4443 149.155 72.2038C149.396 71.9633 149.531 71.6374 149.531 71.2976C149.531 70.9577 149.396 70.6318 149.155 70.3913C148.915 70.1509 148.588 70.0155 148.248 70.015H87.6937Z" fill="white"/>
<path d="M87.6937 77.3564C87.3534 77.3569 87.0272 77.4923 86.7867 77.7327C86.5462 77.9732 86.4111 78.2992 86.4111 78.639C86.4111 78.9788 86.5462 79.3047 86.7867 79.5452C87.0272 79.7857 87.3534 79.921 87.6937 79.9215H113.75C113.919 79.9218 114.087 79.8888 114.243 79.8244C114.399 79.7601 114.54 79.6657 114.66 79.5465C114.779 79.4274 114.874 79.2859 114.939 79.1302C115.004 78.9745 115.037 78.8076 115.037 78.639C115.037 78.4704 115.004 78.3035 114.939 78.1477C114.874 77.992 114.779 77.8505 114.66 77.7314C114.54 77.6123 114.399 77.5179 114.243 77.4535C114.087 77.3892 113.919 77.3562 113.75 77.3564H87.6937Z" fill="white"/>
<path d="M169.243 100.35C173.499 100.35 176.949 96.9047 176.949 92.6547C176.949 88.4047 173.499 84.9595 169.243 84.9595C164.986 84.9595 161.536 88.4047 161.536 92.6547C161.536 96.9047 164.986 100.35 169.243 100.35Z" fill="#3F3D56"/>
<path d="M168.6 96.0571L166.154 92.917L167.576 91.8121L168.735 93.2991L172.647 89.175L173.956 90.4127L168.6 96.0571Z" fill="white"/>
<path d="M156.524 13.562L144.001 16.4236L138.709 6.45923L149.418 2.28491L156.524 13.562Z" fill="#2F2E41"/>
<path d="M166.931 84.3327L171.624 80.0742L161.502 57.2771L152.658 46.4066L167.108 52.6517L168.612 68.5532L175.797 71.0216L174.866 51.1674C174.808 49.9293 174.395 48.7339 173.676 47.7235C172.956 46.7131 171.962 45.9304 170.81 45.4683L158.954 40.7134L156.832 31.8167L144.455 31.6399C140.609 38.3218 138.891 44.2026 141.666 48.3912L154.544 60.9319L166.931 84.3327Z" fill="#2F2E41"/>
<path d="M169.118 81.4151C169.118 81.4151 169.785 79.4244 170.831 79.8826C171.877 80.3408 174.806 82.662 174.806 82.662C174.806 82.662 179.699 83.3531 176.634 85.1235C173.57 86.8939 172.371 86.7837 172.273 86.5333C172.175 86.2829 171.38 85.727 171.38 85.727L170.224 86.4657L168.273 86.6485C168.273 86.6485 165.719 82.3278 166.541 82.2132C167.363 82.0987 169.161 82.2639 169.118 81.4151Z" fill="#2F2E41"/>
<path d="M172.205 69.2075C172.205 69.2075 174.24 68.6793 174.426 69.8044C174.612 70.9295 174.262 74.647 174.262 74.647C174.262 74.647 176.352 79.1181 173.194 77.5199C170.036 75.9218 169.474 74.8586 169.631 74.6401C169.788 74.4216 169.82 73.4531 169.82 73.4531L168.57 72.8889L167.352 71.3561C167.352 71.3561 169.584 66.861 170.129 67.4863C170.673 68.1116 171.516 69.7063 172.205 69.2075Z" fill="#2F2E41"/>
<path d="M145.946 12.6311C148.451 12.6311 150.482 10.6033 150.482 8.10183C150.482 5.60035 148.451 3.57251 145.946 3.57251C143.44 3.57251 141.409 5.60035 141.409 8.10183C141.409 10.6033 143.44 12.6311 145.946 12.6311Z" fill="#FFB9B9"/>
<path d="M144.587 32.6691C148.499 37.7558 152.512 39.7655 156.826 32.4943L157.182 29.2498C159.95 25.7638 159.139 22.7515 155.763 20.0788L154.135 16.2564L151.682 15.8615C152.005 16.2342 152.21 16.6941 152.271 17.1833C152.333 17.6724 152.248 18.1687 152.027 18.6096C151.806 19.0504 151.459 19.416 151.03 19.6602C150.601 19.9043 150.11 20.0161 149.617 19.9814L148.73 19.9188C148.401 19.8956 148.08 19.8077 147.786 19.6601C147.491 19.5125 147.229 19.3082 147.014 19.0589L143.245 14.6906L141.656 15.1144C141.476 15.1625 141.316 15.2654 141.197 15.4088C141.079 15.5523 141.008 15.7291 140.995 15.9147L140.48 23.1946C142.747 25.702 144.051 28.9071 144.587 32.6691Z" fill="#E6E6E6"/>
<path d="M142.835 29.5699L134.169 27.813L139.925 22.4655L137.734 18.5099L128.431 28.3899C128.271 28.5714 128.164 28.7932 128.122 29.0311C128.08 29.2691 128.104 29.514 128.191 29.7393C128.278 29.9647 128.426 30.1617 128.618 30.309C128.81 30.4564 129.038 30.5484 129.279 30.575L141.878 31.9682L142.395 34.2448C142.464 34.5476 142.605 34.8295 142.806 35.0665C143.006 35.3036 143.262 35.4889 143.549 35.6067C143.837 35.7246 144.149 35.7715 144.459 35.7436C144.768 35.7157 145.067 35.6138 145.329 35.4464C145.571 35.2915 145.776 35.0845 145.928 34.8406C146.081 34.5967 146.177 34.322 146.209 34.0365C146.242 33.7509 146.211 33.4616 146.117 33.1897C146.024 32.9179 145.871 32.6701 145.67 32.4646L142.835 29.5699Z" fill="#FFB9B9"/>
<path d="M156.308 43.6344L155.158 46.6249C155.046 46.917 154.997 47.2297 155.014 47.5421C155.032 47.8546 155.116 48.1598 155.26 48.4375C155.405 48.7152 155.607 48.9592 155.853 49.1532C156.099 49.3473 156.383 49.487 156.687 49.5632C157.043 49.6524 157.416 49.6519 157.772 49.5615C158.128 49.4711 158.456 49.2938 158.726 49.0454C158.996 48.7971 159.201 48.4856 159.32 48.1389C159.44 47.7922 159.472 47.4212 159.412 47.0593L158.925 44.1009L160.525 32.2692L159.095 24.4532L155.834 25.4531L156.918 32.7287L156.308 43.6344Z" fill="#FFB9B9"/>
<path d="M155.078 26.2877L160.008 24.3676L157.26 18.3553C156.967 17.7129 156.504 17.1624 155.921 16.7628C155.338 16.3632 154.657 16.1295 153.951 16.0868L152.687 16.0103L155.078 26.2877Z" fill="#E6E6E6"/>
<path d="M138.837 23.8345L144.093 22.0575L142.24 15.7612C142.18 15.5574 142.049 15.3815 141.871 15.2653C141.693 15.149 141.479 15.0999 141.268 15.1268C141.09 15.1496 140.922 15.2255 140.788 15.3448L135.417 20.1018C136.445 21.7905 137.539 21.8329 138.837 23.8345Z" fill="#E6E6E6"/>
<path d="M148.959 0.748419C148.959 0.748419 151.734 1.26946 152.375 4.72418C152.475 5.30678 152.494 5.90053 152.429 6.48819C152.365 7.15319 152.458 8.55774 153.904 10.2116C154.848 11.2842 155.727 12.4117 156.537 13.588L153.639 14.3586L152.343 9.56306C151.716 7.23807 150.748 5.01807 149.473 2.97447L149.446 2.93181C149.446 2.93181 148.483 5.50047 145.903 5.85261L146.698 4.80662C146.698 4.80662 143.682 6.54784 141.972 7.07975C141.777 7.14049 141.603 7.25322 141.467 7.40578C141.331 7.55835 141.24 7.74497 141.203 7.94556C141.165 8.14614 141.184 8.35308 141.255 8.54408C141.327 8.73508 141.45 8.9029 141.61 9.02948C141.622 9.039 141.635 9.04852 141.647 9.05806C142.904 10.0114 145.469 12.2862 144.456 14.4868C143.442 16.6873 144.624 17.0886 144.624 17.0886L142.445 16.261L141.448 15.8346L141.549 16.5708L136.681 16.6726C136.681 16.6726 135.365 16.6646 137.702 13.1586C137.702 13.1586 138.266 11.8439 137.803 10.8396C137.431 10.079 137.246 9.2411 137.263 8.39505C137.41 4.86028 138.902 -2.33086 148.959 0.748419Z" fill="#2F2E41"/>
</g>
<defs>
<clipPath id="clip0_171_1686">
<rect width="296" height="145" fill="white"/>
</clipPath>
</defs>
</svg>
