<svg width="214" height="171" viewBox="0 0 214 171" fill="none" xmlns="http://www.w3.org/2000/svg">
<g clip-path="url(#clip0_171_1739)">
<path d="M88.8664 171C97.7538 171 104.958 169.17 104.958 166.912C104.958 164.654 97.7538 162.823 88.8664 162.823C79.9791 162.823 72.7744 164.654 72.7744 166.912C72.7744 169.17 79.9791 171 88.8664 171Z" fill="#F2F2F2"/>
<path d="M90.0671 125.788C98.9545 125.788 106.159 123.958 106.159 121.7C106.159 119.442 98.9545 117.611 90.0671 117.611C81.1797 117.611 73.9751 119.442 73.9751 121.7C73.9751 123.958 81.1797 125.788 90.0671 125.788Z" fill="#F2F2F2"/>
<path d="M16.092 127.712C24.9794 127.712 32.1841 125.882 32.1841 123.624C32.1841 121.366 24.9794 119.535 16.092 119.535C7.20465 119.535 0 121.366 0 123.624C0 125.882 7.20465 127.712 16.092 127.712Z" fill="#F2F2F2"/>
<path d="M97.4219 0.961914H5.43311V4.44901H97.4219V0.961914Z" fill="#F5F5F5"/>
<path d="M98.8626 0H3.75146V116.878H98.8626V0Z" fill="url(#paint0_linear_171_1739)"/>
<path d="M97.4219 4.4491H5.43311V114.954H97.4219V4.4491Z" fill="white"/>
<path d="M7.32549 3.60738C7.78976 3.60738 8.16612 3.23053 8.16612 2.76566C8.16612 2.3008 7.78976 1.92395 7.32549 1.92395C6.86123 1.92395 6.48486 2.3008 6.48486 2.76566C6.48486 3.23053 6.86123 3.60738 7.32549 3.60738Z" fill="#FF5252"/>
<path d="M9.63604 3.60738C10.1003 3.60738 10.4767 3.23053 10.4767 2.76566C10.4767 2.3008 10.1003 1.92395 9.63604 1.92395C9.17177 1.92395 8.79541 2.3008 8.79541 2.76566C8.79541 3.23053 9.17177 3.60738 9.63604 3.60738Z" fill="#FFFF00"/>
<path d="M11.949 3.60738C12.4133 3.60738 12.7897 3.23053 12.7897 2.76566C12.7897 2.3008 12.4133 1.92395 11.949 1.92395C11.4848 1.92395 11.1084 2.3008 11.1084 2.76566C11.1084 3.23053 11.4848 3.60738 11.949 3.60738Z" fill="#69F0AE"/>
<g opacity="0.2">
<path opacity="0.2" d="M43.8615 8.65759H8.07471V10.822H43.8615V8.65759Z" fill="#6C63FF"/>
</g>
<path d="M69.3205 17.5558H33.5337V19.7202H69.3205V17.5558Z" fill="#F5F5F5"/>
<path opacity="0.5" d="M43.8615 87.2976H8.07471V89.462H43.8615V87.2976Z" fill="#6C63FF"/>
<path d="M60.674 87.0571H48.665V89.7025H60.674V87.0571Z" fill="url(#paint1_linear_171_1739)"/>
<path d="M60.674 100.525H48.665V103.17H60.674V100.525Z" fill="url(#paint2_linear_171_1739)"/>
<path d="M85.1726 100.525H73.1636V103.17H85.1726V100.525Z" fill="url(#paint3_linear_171_1739)"/>
<path d="M60.4339 87.2976H49.1455V89.462H60.4339V87.2976Z" fill="#6C63FF"/>
<path d="M60.4339 100.765H49.1455V102.929H60.4339V100.765Z" fill="#6C63FF"/>
<path d="M84.6922 100.765H73.4038V102.929H84.6922V100.765Z" fill="#6C63FF"/>
<path d="M43.8615 94.0314H8.07471V96.1958H43.8615V94.0314Z" fill="#F5F5F5"/>
<path opacity="0.5" d="M84.9323 94.0314H49.1455V96.1958H84.9323V94.0314Z" fill="#6C63FF"/>
<path d="M84.9323 107.499H49.1455V109.663H84.9323V107.499Z" fill="#F5F5F5"/>
<path opacity="0.5" d="M43.8615 100.765H8.07471V102.929H43.8615V100.765Z" fill="#6C63FF"/>
<path d="M43.8615 107.499H8.07471V109.663H43.8615V107.499Z" fill="#F5F5F5"/>
<path d="M53.7088 21.1631H33.5337V23.3275H53.7088V21.1631Z" fill="#F5F5F5"/>
<path d="M64.2767 21.1631H57.3115V23.3275H64.2767V21.1631Z" fill="#F5F5F5"/>
<path d="M53.7088 28.3778H33.5337V30.5422H53.7088V28.3778Z" fill="#F5F5F5"/>
<path d="M64.2767 28.3778H57.3115V30.5422H64.2767V28.3778Z" fill="#F5F5F5"/>
<path d="M69.3205 24.7704H33.5337V26.9348H69.3205V24.7704Z" fill="#F5F5F5"/>
<g opacity="0.2">
<path opacity="0.2" d="M94.2994 8.65759H58.5127V10.822H94.2994V8.65759Z" fill="#6C63FF"/>
</g>
<path d="M83.0107 17.3152H78.6875V19.9606H83.0107V17.3152Z" fill="url(#paint4_linear_171_1739)"/>
<path d="M83.0107 20.9226H78.6875V23.568H83.0107V20.9226Z" fill="url(#paint5_linear_171_1739)"/>
<path d="M83.0107 24.5299H78.6875V27.1753H83.0107V24.5299Z" fill="url(#paint6_linear_171_1739)"/>
<path d="M82.7706 17.5558H78.9277V19.7202H82.7706V17.5558Z" fill="#FF5252"/>
<path d="M82.7706 21.1631H78.9277V23.3275H82.7706V21.1631Z" fill="#FF9800"/>
<path d="M82.7706 24.7704H78.9277V26.9348H82.7706V24.7704Z" fill="#69F0AE"/>
<path d="M83.0107 28.1373H78.6875V30.7827H83.0107V28.1373Z" fill="url(#paint7_linear_171_1739)"/>
<path d="M82.7706 28.3778H78.9277V30.5422H82.7706V28.3778Z" fill="#6C63FF"/>
<path d="M95.5004 43.769H7.35449V79.8425H95.5004V43.769Z" fill="url(#paint8_linear_171_1739)"/>
<path opacity="0.5" d="M94.2992 44.4905H8.07471V78.64H94.2992V44.4905Z" fill="#6C63FF"/>
<path opacity="0.5" d="M10.7167 47.1359H94.2992V44.4905H8.07471V78.64H10.7167V47.1359Z" fill="white"/>
<path d="M96.301 41.5028L7.80029 49.5674L11.109 85.9713L99.6097 77.9068L96.301 41.5028Z" fill="url(#paint9_linear_171_1739)"/>
<path d="M95.1914 42.5669L9.32178 50.3917L12.4128 84.4007L98.2825 76.5758L95.1914 42.5669Z" fill="white"/>
<path opacity="0.5" d="M15.7318 78.3009L14.2427 59.3576C14.2427 59.3576 21.9284 51.1809 37.444 57.2413C52.9596 63.3016 60.2755 59.0233 62.7974 54.9302C65.3193 50.837 78.4091 46.2725 82.6506 53.1193C86.8922 59.966 91.9792 52.2679 91.9792 52.2679L93.6989 71.1872L15.7318 78.3009Z" fill="#6C63FF"/>
<path d="M23.5449 55.2308L23.674 56.669" stroke="#6C63FF" stroke-miterlimit="10"/>
<path d="M23.9268 59.4249L25.3054 74.5902" stroke="#6C63FF" stroke-miterlimit="10" stroke-dasharray="11.51 11.51"/>
<path d="M25.4302 75.9683L25.5617 77.404" stroke="#6C63FF" stroke-miterlimit="10"/>
<path d="M38.3135 57.578L38.445 59.0137" stroke="#6C63FF" stroke-miterlimit="10"/>
<path d="M38.729 62.1425L39.7257 73.0871" stroke="#6C63FF" stroke-miterlimit="10" stroke-dasharray="13.06 13.06"/>
<path d="M39.8672 74.6504L39.9963 76.0885" stroke="#6C63FF" stroke-miterlimit="10"/>
<path d="M53.3823 60.1464L53.5258 61.5821" stroke="#6C63FF" stroke-miterlimit="10"/>
<path d="M53.7593 63.9269L54.5711 72.1276" stroke="#6C63FF" stroke-miterlimit="10" stroke-dasharray="9.79 9.79"/>
<path d="M54.689 73.2988L54.83 74.7369" stroke="#6C63FF" stroke-miterlimit="10"/>
<path d="M66.9258 51.6667L67.0549 53.1049" stroke="#6C63FF" stroke-miterlimit="10"/>
<path d="M67.3008 55.8055L68.653 70.6654" stroke="#6C63FF" stroke-miterlimit="10" stroke-dasharray="11.28 11.28"/>
<path d="M68.7754 72.0145L68.9069 73.4526" stroke="#6C63FF" stroke-miterlimit="10"/>
<path d="M76.7012 49.6827L76.8303 51.1185" stroke="#6C63FF" stroke-miterlimit="10"/>
<path d="M77.0903 53.9755L78.5194 69.6866" stroke="#6C63FF" stroke-miterlimit="10" stroke-dasharray="11.93 11.93"/>
<path d="M78.6494 71.1151L78.7809 72.5508" stroke="#6C63FF" stroke-miterlimit="10"/>
<path d="M23.6085 56.3358C24.269 56.2756 24.7557 55.6907 24.6956 55.0293C24.6355 54.368 24.0513 53.8806 23.3908 53.9408C22.7303 54.001 22.2436 54.5859 22.3037 55.2473C22.3638 55.9087 22.948 56.396 23.6085 56.3358Z" fill="#FF9800"/>
<path d="M38.3072 58.8609C38.9677 58.8008 39.4544 58.2158 39.3943 57.5545C39.3342 56.8931 38.75 56.4058 38.0895 56.466C37.429 56.5262 36.9423 57.1111 37.0024 57.7724C37.0625 58.4338 37.6467 58.9211 38.3072 58.8609Z" fill="#FF5252"/>
<path d="M53.4879 61.3403C54.1484 61.2801 54.6351 60.6952 54.575 60.0339C54.5149 59.3725 53.9307 58.8852 53.2702 58.9453C52.6097 59.0055 52.1229 59.5905 52.1831 60.2518C52.2432 60.9132 52.8273 61.4005 53.4879 61.3403Z" fill="#69F0AE"/>
<path d="M66.9903 53.3484C67.915 53.2641 68.5964 52.4452 68.5123 51.5193C68.4281 50.5934 67.6103 49.9111 66.6856 49.9954C65.7609 50.0796 65.0795 50.8985 65.1636 51.8245C65.2478 52.7504 66.0656 53.4326 66.9903 53.3484Z" fill="url(#paint10_linear_171_1739)"/>
<path d="M76.9488 51.4759C77.8735 51.3917 78.5549 50.5728 78.4708 49.6469C78.3866 48.721 77.5688 48.0387 76.6441 48.1229C75.7194 48.2072 75.0379 49.0261 75.1221 49.952C75.2063 50.8779 76.0241 51.5602 76.9488 51.4759Z" fill="url(#paint11_linear_171_1739)"/>
<path d="M66.9463 52.8694C67.6069 52.8092 68.0936 52.2243 68.0335 51.5629C67.9733 50.9016 67.3892 50.4142 66.7287 50.4744C66.0682 50.5346 65.5814 51.1195 65.6416 51.7809C65.7017 52.4422 66.2858 52.9296 66.9463 52.8694Z" fill="#6C63FF"/>
<path d="M76.9053 50.9969C77.5658 50.9368 78.0526 50.3518 77.9925 49.6905C77.9323 49.0291 77.3482 48.5418 76.6877 48.602C76.0271 48.6621 75.5404 49.2471 75.6005 49.9084C75.6607 50.5698 76.2448 51.0571 76.9053 50.9969Z" fill="#6C63FF"/>
<path d="M92.1265 53.9563C92.787 53.8961 93.2737 53.3112 93.2136 52.6498C93.1535 51.9885 92.5694 51.5011 91.9088 51.5613C91.2483 51.6215 90.7616 52.2064 90.8217 52.8678C90.8818 53.5291 91.466 54.0165 92.1265 53.9563Z" fill="#69F0AE"/>
<g opacity="0.2">
<path opacity="0.2" d="M94.4531 76.6487L94.4699 76.704C94.6539 76.6007 94.4531 76.6487 94.4531 76.6487Z" fill="url(#paint12_linear_171_1739)"/>
</g>
<g opacity="0.2">
<path opacity="0.2" d="M92.4642 117.046L96.3743 116.414L95.8363 114.009V113.975H95.8219L93.0502 101.229V91.9343C93.0499 91.8162 93.0435 91.6982 93.031 91.5807C97.1717 86.0832 94.7123 77.4568 94.4721 76.7041C94.4289 76.7257 94.364 76.7546 94.2727 76.7907C94.2427 76.4541 94.1792 76.1213 94.083 75.7974C94.083 75.7974 92.8821 75.0327 92.2264 76.0163C91.6548 76.8748 92.0799 77.3991 92.1976 77.5217L92.1159 77.5482C92.2999 77.8378 92.4286 78.1591 92.4954 78.4957C92.4575 78.4128 92.4142 78.3325 92.3657 78.2552C92.2144 78.2288 92.1255 78.2047 92.1255 78.2047L92.0967 78.1783L92.015 78.2047C92.4305 78.8132 92.5771 79.8882 92.5578 81.1627C92.4143 80.9638 92.2536 80.7779 92.0775 80.6072C91.3183 79.8811 90.3169 79.4629 89.2674 79.4336H89.068C88.9592 79.4336 88.8503 79.4408 88.7414 79.4553H88.6597L88.5228 79.4745L88.3667 79.5034L88.2538 79.5274L88.0593 79.5803L87.9872 79.602C87.9056 79.6284 87.8263 79.6549 87.7471 79.6861C87.4838 79.8144 87.2076 79.9144 86.9232 79.9844C86.8848 79.9844 86.8464 79.9843 86.8055 79.9964C86.4845 80.0189 86.1657 79.9278 85.9049 79.739L85.8184 79.6717C85.7857 79.6437 85.7544 79.614 85.7247 79.5827C85.6921 79.6661 85.6782 79.7555 85.6839 79.8449C85.7019 80.0568 85.8029 80.2531 85.9649 80.3908C86.0104 80.4302 86.0604 80.4641 86.1138 80.4918C86.1928 80.5332 86.2795 80.5578 86.3684 80.5639H86.4597H86.4381C86.3828 80.5904 86.3276 80.6144 86.27 80.6361H86.2579C86.1955 80.6577 86.1354 80.677 86.0706 80.6938C85.7558 80.7734 85.4269 80.7784 85.1099 80.7082L85.0066 80.6842C84.9562 80.6697 84.9033 80.6553 84.8553 80.6385C84.8711 80.6746 84.8887 80.71 84.9081 80.7443L84.9273 80.7756L84.9706 80.8429L84.997 80.8766L85.045 80.9367L85.0739 80.968L85.1339 81.0281L85.1579 81.0497L85.2468 81.1243L85.278 81.1459L85.3429 81.1916L85.3861 81.2181L85.4437 81.2517L85.4918 81.2758L85.5518 81.3022L85.6023 81.3239L85.6695 81.3479L85.7536 81.372L85.816 81.3888H85.8761H85.9313H85.9937H86.2339C86.3579 81.378 86.4794 81.348 86.5942 81.2998L86.3732 81.3912L86.2627 81.4297L86.1499 81.4706L86.037 81.5042L85.9217 81.5379L85.8088 81.5668L85.6887 81.5956L85.5782 81.6173L85.4509 81.6389L85.3453 81.6557L85.2084 81.6726H85.1099H84.9538H84.8721H84.6319C84.7647 81.7112 84.8881 81.7767 84.9946 81.865C85.0634 81.9148 85.1385 81.9552 85.218 81.9852C85.2534 81.9956 85.2895 82.0036 85.326 82.0093H85.3573H85.4341H85.7584H85.864C86.0831 82.0314 86.295 82.0994 86.4861 82.2089C86.5873 82.2741 86.6774 82.3553 86.7527 82.4494C86.7191 82.5047 86.6855 82.5576 86.6566 82.6153C86.6278 82.673 86.6062 82.7115 86.5822 82.762C86.5341 82.8614 86.4917 82.9632 86.4549 83.0674C86.3181 83.441 86.2482 83.8359 86.2483 84.2338C86.2483 84.3083 86.2483 84.3805 86.2483 84.4526C86.2483 84.4719 86.2483 84.4935 86.2483 84.5128C86.2483 84.5705 86.2547 84.6282 86.2675 84.6859V84.7316C86.2772 84.8022 86.29 84.8719 86.306 84.9408V84.9817C86.3188 85.0394 86.3332 85.0964 86.3492 85.1525L86.3636 85.203C86.404 85.339 86.4529 85.4723 86.5101 85.6022L86.5269 85.6407C86.5542 85.7 86.5822 85.7577 86.611 85.8138V85.8306C86.6462 85.8948 86.6831 85.9581 86.7215 86.0206V86.0351C86.7567 86.0928 86.7943 86.1489 86.8344 86.2034L86.8488 86.2226C86.935 86.3416 87.0289 86.4549 87.1298 86.5617C87.3915 86.8377 87.6975 87.0678 88.0353 87.2423C88.0237 87.2939 88.0149 87.3461 88.0088 87.3986C88.0059 87.4531 88.0059 87.5077 88.0088 87.5622V88.832C87.9368 88.8704 87.8663 88.9113 87.7975 88.9546C84.788 87.5862 80.3063 77.8921 80.3063 77.8921H80.1982C80.6353 77.565 80.1982 76.1413 80.1982 76.1413C79.9416 75.9882 79.6547 75.8929 79.3576 75.8624H79.1174H79.0742H79.043H78.9997H78.9709L78.9229 75.8768H78.8988L78.8268 75.9032L78.7595 75.9345L78.7355 75.9465L78.6899 75.973L78.6587 76.1197L78.6154 76.1485L78.589 76.1702L78.5482 76.2039L78.5218 76.2279L78.4809 76.2664L78.4569 76.2928L78.4161 76.3409L78.3969 76.365L78.3368 76.4467C77.6811 77.4304 78.3368 77.9787 78.3368 77.9787C78.2946 78.358 78.2746 78.7394 78.2768 79.121C78.2287 86.2058 85.8016 91.6962 86.1883 91.9703C86.0178 92.4128 84.6103 96.3328 86.2051 101.227C86.2101 101.239 86.2165 101.25 86.2243 101.26C84.4084 102.936 83.0607 105.057 82.3143 107.414C81.5679 109.771 81.4486 112.282 81.9683 114.699L81.9996 114.846H82.0692C82.0621 114.878 82.0533 114.91 82.0428 114.942C82.0242 115 82.001 115.056 81.9731 115.11C81.9252 115.203 81.8663 115.289 81.7978 115.368C81.7234 115.454 81.6369 115.541 81.5456 115.63L81.4495 115.721C81.0677 116.087 80.681 116.443 80.9692 116.587H85.1027V114.781H85.1747C85.1747 114.781 85.1459 114.725 85.1027 114.617V114.598H85.0883C84.8721 114.04 84.3677 112.313 85.1747 109.654C86.1571 106.371 89.9783 104.731 89.9783 104.731L90.048 104.971H90.0336L93.031 114.831C93.031 114.87 93.031 114.908 93.019 114.949C93.0054 115.042 92.9838 115.134 92.9541 115.223C92.9312 115.292 92.9039 115.36 92.8725 115.425C92.6875 115.808 92.3681 116.257 92.2288 116.594C92.2089 116.64 92.192 116.688 92.1784 116.736C92.1619 116.79 92.1562 116.848 92.1615 116.904C92.1657 116.94 92.1798 116.975 92.2023 117.003C92.2247 117.031 92.2547 117.053 92.2888 117.065H92.3441L92.4594 117.046H92.4642ZM91.3065 88.9738C91.2312 88.9322 91.1512 88.8929 91.0663 88.856V87.6632C91.0657 87.572 91.0568 87.481 91.0399 87.3914C91.2987 87.2679 91.5408 87.1119 91.7604 86.9273C91.6163 87.6632 91.4554 88.3678 91.3089 88.9738H91.3065Z" fill="url(#paint13_linear_171_1739)"/>
</g>
<path d="M78.2699 79.0272C78.2699 79.0272 77.5494 78.4212 78.2699 77.3294C78.9905 76.2375 80.3283 77.0889 80.3283 77.0889C80.3283 77.0889 80.8086 78.6641 80.3283 79.0272C79.8479 79.3903 78.2699 79.0272 78.2699 79.0272Z" fill="#CA7070"/>
<path d="M85.7536 119.588H82.4175C82.4299 119.745 82.4082 119.904 82.3539 120.052C82.2996 120.2 82.214 120.335 82.1029 120.447C81.6538 120.966 80.7507 121.594 81.1758 121.808H85.7536V119.588Z" fill="#00695C"/>
<path opacity="0.2" d="M82.3455 120.447C82.4566 120.335 82.5422 120.2 82.5965 120.052C82.6508 119.904 82.6725 119.745 82.6601 119.588H82.42C82.4323 119.745 82.4106 119.904 82.3563 120.052C82.302 120.2 82.2164 120.335 82.1053 120.447C81.6562 120.966 80.7531 121.594 81.1783 121.808H81.4184C80.9933 121.594 81.8964 120.969 82.3455 120.447Z" fill="white"/>
<path d="M97.633 118.9L94.5106 119.408C94.597 119.78 94.5467 120.171 94.3689 120.509C94.0279 121.231 93.2617 122.13 93.7228 122.325L98.243 121.603L97.633 118.9Z" fill="#00695C"/>
<path d="M96.1103 77.5482C96.1103 77.5482 99.6818 88.8296 93.6917 95.0751L91.9624 93.75C91.9624 93.75 95.5027 81.4369 93.5212 78.5463C97.0182 77.3799 96.1103 77.5482 96.1103 77.5482Z" fill="#00695C"/>
<path d="M93.641 78.5438C93.641 78.5438 92.9205 77.9378 93.641 76.846C94.3616 75.7541 95.6994 76.6055 95.6994 76.6055C95.6994 76.6055 96.1797 78.1807 95.6994 78.5438C95.219 78.907 93.641 78.5438 93.641 78.5438Z" fill="#CA7070"/>
<path opacity="0.2" d="M94.6091 120.512C94.7874 120.173 94.8377 119.781 94.7508 119.408L97.6329 118.927V118.888L94.5106 119.408C94.597 119.78 94.5467 120.171 94.3689 120.509C94.0279 121.231 93.2617 122.13 93.7228 122.325L93.9126 122.294C93.5691 122.053 94.2825 121.19 94.6091 120.512Z" fill="white"/>
<path d="M92.3709 89.7555C92.3709 88.8178 91.6122 88.0576 90.6764 88.0576C89.7406 88.0576 88.9819 88.8178 88.9819 89.7555V91.3884C88.9819 92.3261 89.7406 93.0863 90.6764 93.0863C91.6122 93.0863 92.3709 92.3261 92.3709 91.3884V89.7555Z" fill="#CA7070"/>
<path opacity="0.2" d="M92.205 94.4762C92.205 94.4762 95.702 82.3147 93.7973 79.3254C93.6292 79.2941 93.5211 79.2701 93.5211 79.2701L93.4899 79.2412L93.401 79.2701C95.3825 82.1559 91.8423 94.4738 91.8423 94.4738L93.5716 95.7989L93.7229 95.6354L92.205 94.4762Z" fill="white"/>
<path d="M90.7374 89.8156C92.8094 89.8156 94.4891 88.1338 94.4891 86.0592C94.4891 83.9846 92.8094 82.3027 90.7374 82.3027C88.6655 82.3027 86.9858 83.9846 86.9858 86.0592C86.9858 88.1338 88.6655 89.8156 90.7374 89.8156Z" fill="#CA7070"/>
<path opacity="0.2" d="M89.4046 91.3908V89.7555C89.4048 89.6358 89.4176 89.5165 89.4431 89.3995C88.7104 89.0228 88.122 88.4151 87.7685 87.6702C87.415 86.9253 87.3161 86.0847 87.4872 85.278C87.6582 84.4713 88.0896 83.7434 88.7148 83.2065C89.34 82.6697 90.1243 82.3538 90.9466 82.3075H90.7352C89.8937 82.3072 89.0765 82.5903 88.415 83.1111C87.7535 83.632 87.2861 84.3605 87.0879 85.1794C86.8898 85.9983 86.9723 86.8602 87.3224 87.6264C87.6724 88.3927 88.2696 89.0189 89.0179 89.4043C88.9925 89.5213 88.9796 89.6406 88.9795 89.7603V91.3956C88.9773 91.637 89.027 91.8761 89.1253 92.0967C89.2235 92.3172 89.368 92.5139 89.5489 92.6736C89.7298 92.8333 89.9428 92.9521 90.1736 93.0221C90.4044 93.092 90.6476 93.1115 90.8865 93.079C90.4769 93.0259 90.1005 92.8252 89.8278 92.5145C89.5551 92.2039 89.4047 91.8044 89.4046 91.3908Z" fill="white"/>
<path d="M94.5493 104.781C94.5493 104.781 87.3127 105.599 87.0461 104.781C85.1703 99.0239 87.0461 94.4811 87.0461 94.4811C87.0461 93.4848 87.4414 92.5293 88.1449 91.8248C88.8485 91.1204 89.8027 90.7246 90.7977 90.7246C91.7927 90.7246 92.7469 91.1204 93.4505 91.8248C94.1541 92.5293 94.5493 93.4848 94.5493 94.4811V104.781Z" fill="#00695C"/>
<path d="M94.5491 104.781L97.818 119.809H94.5491L91.1602 108.66C91.1602 108.66 86.9234 110.478 85.8354 114.115C84.7474 117.751 85.8354 119.809 85.8354 119.809H82.324L82.288 119.646C81.7103 116.968 81.8456 114.186 82.6802 111.577C83.5149 108.968 85.0195 106.624 87.0435 104.781" fill="#263238"/>
<path opacity="0.2" d="M87.4688 104.781C85.593 99.0239 87.4688 94.481 87.4688 94.481C87.4686 93.5267 87.8312 92.6081 88.483 91.9117C89.1347 91.2154 90.0267 90.7935 90.9778 90.7318C90.8986 90.7318 90.8169 90.7318 90.7376 90.7318C89.7427 90.7318 88.7884 91.1276 88.0849 91.832C87.3813 92.5365 86.986 93.492 86.986 94.4883C86.986 94.4883 85.1102 99.0335 86.986 104.788C87.0821 105.082 88.0717 105.164 89.3014 105.152C88.3022 105.13 87.5457 105.034 87.4688 104.781Z" fill="white"/>
<path d="M86.9858 94.4185C86.9858 94.4185 77.3042 87.6319 78.2721 79.0272H80.4505C80.4505 79.0272 85.6528 90.3086 88.9865 91.3908C92.3202 92.473 86.9858 94.4185 86.9858 94.4185Z" fill="#00695C"/>
<g opacity="0.2">
<path opacity="0.2" d="M91.2227 108.925L94.5491 119.87H95.0295L91.6406 108.72C91.6406 108.72 91.4845 108.788 91.2227 108.925Z" fill="white"/>
<path opacity="0.2" d="M87.5288 104.841H87.0484C85.0244 106.685 83.5197 109.028 82.6851 111.637C81.8505 114.246 81.7152 117.028 82.2929 119.706L82.3289 119.87H82.8092L82.7732 119.706C82.1956 117.028 82.3308 114.246 83.1655 111.637C84.0001 109.028 85.5048 106.685 87.5288 104.841Z" fill="white"/>
</g>
<path opacity="0.2" d="M78.6348 79.1499H78.2722C77.3115 87.7546 86.9859 94.5412 86.9859 94.5412L87.2261 94.4498C86.1044 93.6201 77.7294 87.1822 78.6348 79.1499Z" fill="white"/>
<path d="M87.7447 84.3805C87.9539 84.8642 88.1008 85.3725 88.1819 85.8932C88.422 86.9465 88.9648 87.9975 89.8991 88.5386C90.4166 88.8196 90.9921 88.9769 91.5804 88.9979C92.4739 89.0532 93.4418 88.8801 94.0735 88.2452C94.4669 87.8151 94.7308 87.2823 94.8348 86.7085C95.0238 85.8607 94.9978 84.979 94.7591 84.1439C94.5203 83.3088 94.0766 82.5468 93.4682 81.9275C92.8436 81.3236 92.0614 80.9085 91.2115 80.7303C90.3616 80.552 89.4788 80.6177 88.6646 80.9199C88.3737 81.0624 88.0686 81.1736 87.7543 81.2517C87.5137 81.2903 87.2674 81.2703 87.0361 81.1932C86.8049 81.1162 86.5957 80.9845 86.4261 80.8092C86.3872 80.9355 86.3785 81.0692 86.4009 81.1994C86.4233 81.3296 86.4761 81.4527 86.555 81.5587C86.6339 81.6646 86.7366 81.7504 86.8549 81.8091C86.9732 81.8677 87.1036 81.8976 87.2355 81.8963C86.9579 82.0297 86.6567 82.1069 86.3492 82.1234C86.0418 82.1399 85.734 82.0954 85.4438 81.9925C85.6083 82.3395 85.8978 82.6114 86.2541 82.7537C86.6105 82.896 87.0074 82.8981 87.3652 82.7596C86.6854 83.0626 85.9477 83.2137 85.2036 83.2021C85.3597 83.2021 85.6648 83.4907 85.8545 83.5484C86.0927 83.5863 86.3339 83.6032 86.575 83.5989C86.8216 83.6141 87.0597 83.6944 87.2652 83.8317C87.4706 83.969 87.6361 84.1584 87.7447 84.3805Z" fill="#263238"/>
<g opacity="0.2">
<path opacity="0.2" d="M87.2456 81.8915C86.9676 82.0263 86.6654 82.104 86.3569 82.1199C86.7472 82.14 87.1362 82.0614 87.4882 81.8915C87.3707 81.8922 87.2545 81.8684 87.1467 81.8218C87.0389 81.7751 86.9419 81.7065 86.862 81.6204C86.7821 81.5342 86.7209 81.4324 86.6823 81.3214C86.6437 81.2103 86.6286 81.0924 86.6379 80.9752C86.5656 80.9246 86.498 80.8675 86.4362 80.8044C86.3972 80.9307 86.3886 81.0644 86.411 81.1946C86.4334 81.3248 86.4862 81.4479 86.5651 81.5539C86.644 81.6598 86.7467 81.7456 86.865 81.8043C86.9832 81.8629 87.1136 81.8928 87.2456 81.8915Z" fill="white"/>
<path opacity="0.2" d="M88.0046 81.2541C88.3189 81.176 88.624 81.0647 88.9149 80.9223C89.3743 80.7407 89.8622 80.6421 90.356 80.6313C89.7816 80.6126 89.2095 80.7116 88.6747 80.9223C88.3839 81.0647 88.0787 81.176 87.7645 81.2541C87.7212 81.2541 87.678 81.2541 87.6348 81.2686C87.7582 81.2797 87.8825 81.2748 88.0046 81.2541Z" fill="white"/>
<path opacity="0.2" d="M86.0854 83.5508C85.8957 83.4955 85.5906 83.2093 85.4345 83.2045C86.1786 83.216 86.9163 83.065 87.5961 82.762C87.4436 82.825 87.2807 82.8592 87.1158 82.863C86.5031 83.099 85.8508 83.215 85.1943 83.2045C85.3505 83.2045 85.6555 83.4931 85.8452 83.5508C86.0102 83.5909 86.1804 83.6047 86.3496 83.5917C86.2602 83.5893 86.1714 83.5756 86.0854 83.5508Z" fill="white"/>
<path opacity="0.2" d="M91.8283 89.0003C91.2399 88.9792 90.6645 88.822 90.147 88.5409C89.2127 87.995 88.6795 86.9441 88.4297 85.8956C88.3486 85.3748 88.2018 84.8665 87.9926 84.3829C87.8821 84.1596 87.7142 83.9699 87.506 83.8333C87.2979 83.6967 87.0571 83.6183 86.8085 83.6061C86.6886 83.5971 86.5682 83.5971 86.4482 83.6061H86.5659C86.8145 83.6183 87.0553 83.6967 87.2634 83.8333C87.4716 83.9699 87.6396 84.1596 87.75 84.3829C87.9592 84.8665 88.1061 85.3748 88.1871 85.8956C88.4273 86.9489 88.9701 87.9998 89.9044 88.5409C90.4219 88.822 90.9974 88.9792 91.5857 89.0003C91.725 89.0003 91.8643 89.0003 92.006 89.0003H91.8283Z" fill="white"/>
<path opacity="0.2" d="M86.9643 82.8534C86.7102 82.835 86.4647 82.7535 86.25 82.6162C86.0353 82.4789 85.8581 82.2901 85.7346 82.067C85.6393 82.0467 85.5455 82.0202 85.4536 81.9877C85.588 82.2684 85.8045 82.5016 86.0743 82.6562C86.3441 82.8108 86.6545 82.8796 86.9643 82.8534Z" fill="white"/>
</g>
<path opacity="0.2" d="M78.5126 79.0273C78.5126 79.0273 77.792 78.4212 78.5126 77.3294C78.6083 77.1732 78.7395 77.0418 78.8957 76.9461C79.0518 76.8504 79.2283 76.793 79.4108 76.7787C79.1884 76.7525 78.9631 76.7904 78.7615 76.888C78.5598 76.9855 78.3901 77.1387 78.2724 77.3294C77.5519 78.4212 78.2724 79.0273 78.2724 79.0273C78.7399 79.1321 79.2175 79.1853 79.6966 79.186C79.2982 79.1662 78.9022 79.1131 78.5126 79.0273Z" fill="white"/>
<g opacity="0.2">
<path opacity="0.2" d="M8.87884 79.085L8.89796 79.0201C8.89796 79.0201 8.65412 78.972 8.87884 79.085Z" fill="url(#paint14_linear_171_1739)"/>
</g>
<g opacity="0.2">
<path opacity="0.2" d="M31.5116 83.1156C31.4885 83.0389 31.4596 82.9642 31.4252 82.8919C31.4252 82.8678 31.4012 82.8486 31.3891 82.827C31.3674 82.784 31.3433 82.7423 31.3171 82.7019L31.2691 82.6394C31.2442 82.6068 31.2178 82.5755 31.1898 82.5456L31.1346 82.4903C31.1057 82.4638 31.0769 82.4398 31.0481 82.4181L30.988 82.3748L30.892 82.3171L30.8319 82.2859L30.7239 82.2402L30.6686 82.2185C30.6174 82.2009 30.5653 82.1865 30.5125 82.1752C30.163 82.1091 29.8034 82.1189 29.4581 82.2041C29.4581 82.2041 28.4518 83.6903 28.8384 84.2242L28.7111 84.1857C28.7111 84.1857 21.2344 92.5403 17.0168 94.0915C16.9095 94.0177 16.7982 93.9488 16.683 93.8847V92.3215C16.6865 92.2558 16.6865 92.19 16.683 92.1243C16.6757 92.0621 16.6653 92.0003 16.6517 91.9391L16.683 91.9223L16.8078 91.8525L16.988 91.7419L17.1033 91.6674C17.1897 91.608 17.2698 91.5455 17.3435 91.4798L17.4371 91.398C17.4948 91.3499 17.55 91.2994 17.6028 91.2465L17.6989 91.1527C17.7662 91.0838 17.8302 91.0132 17.8911 90.9411L17.9583 90.8593C18.016 90.7872 18.0712 90.7134 18.124 90.6381L18.1913 90.5371C18.2393 90.4633 18.285 90.388 18.3282 90.311L18.3714 90.2364C18.4243 90.1378 18.4747 90.0344 18.5179 89.9286L18.5564 89.8348C18.59 89.7499 18.6212 89.6641 18.65 89.5775C18.65 89.5462 18.6716 89.5174 18.6788 89.4861C18.7125 89.3731 18.7437 89.2601 18.7677 89.1422C18.7677 89.1182 18.7677 89.0965 18.7797 89.0725C18.7989 88.9747 18.8141 88.8753 18.8254 88.7743C18.8254 88.7406 18.8254 88.7069 18.8254 88.6733C18.8254 88.5506 18.8446 88.4328 18.8446 88.3005C18.8447 87.3648 18.5242 86.4573 17.9367 85.7297C18.2561 85.2295 18.4651 84.9337 18.4651 84.9337C18.2729 84.8014 18.0832 84.6811 17.8959 84.5633L17.7133 84.4551C17.5884 84.3805 17.4731 84.306 17.3386 84.2386L17.1297 84.128C17.0168 84.0679 16.9063 84.0102 16.7958 83.9573L16.5821 83.8587L16.2626 83.7192L16.0537 83.635C15.948 83.5941 15.8423 83.5556 15.739 83.5196L15.5421 83.4522C15.434 83.4186 15.3259 83.3873 15.2203 83.3584L15.0449 83.3103C14.9248 83.2815 14.8047 83.2574 14.6871 83.2334L14.5598 83.2069C14.3988 83.1781 14.2403 83.1564 14.0794 83.142C13.0966 83.0366 12.1033 83.1891 11.1973 83.5845C11.2453 82.435 11.4374 81.4874 11.8409 80.9006L11.7425 80.867L11.7088 80.9006C11.7088 80.9006 11.5912 80.9271 11.4062 80.9608C11.3479 81.0542 11.2957 81.1514 11.2501 81.2518C11.3308 80.845 11.4864 80.4568 11.7088 80.107L11.6104 80.0734C11.7521 79.9267 12.2661 79.2942 11.5767 78.2577C10.7841 77.0696 9.33346 77.9931 9.33346 77.9931C9.21845 78.3854 9.14282 78.7882 9.10769 79.1956C8.99721 79.1499 8.91795 79.1162 8.86751 79.0898C8.17254 81.5453 7.79399 84.0798 7.74107 86.6315C5.12551 90.3495 4.04471 95.8374 3.83335 97.0207L3.81654 97.1144C3.80213 97.201 3.79492 97.2467 3.79492 97.2467L10.5944 97.4054C10.5944 97.4295 10.5944 97.4511 10.5944 97.4752V108.256L5.6443 118.739C5.6443 118.739 7.52731 118.799 10.3614 119.163L9.57845 124.768L9.31665 126.341H14.029C14.5526 125.293 11.9346 124.768 11.9346 124.768H11.877L12.8977 119.538C13.3493 119.613 13.8136 119.693 14.2908 119.778C14.9903 119.914 15.6994 119.994 16.4116 120.019C17.0011 120.039 17.5913 120.014 18.1769 119.942C18.5227 122.777 18.0688 124.47 17.9823 124.751H17.9559L17.6941 126.324H22.4064C22.8628 125.41 20.9317 124.893 20.4298 124.778L20.4514 124.624C20.6937 122.855 20.7557 121.066 20.6363 119.285C21.2444 119.038 21.8113 118.7 22.3176 118.282L22.3824 118.225L22.4016 118.205L18.8926 108.345C19.5483 105.556 17.2666 102.626 18.4843 101.162C19.702 99.6973 18.9647 97.8287 18.8206 97.5089C22.1158 96.0659 28.776 92.4586 30.6446 86.2058C30.7818 85.7662 30.8933 85.319 30.9784 84.8663C30.9784 84.8663 31.9199 84.4839 31.5116 83.1156Z" fill="url(#paint15_linear_171_1739)"/>
</g>
<path d="M9.62633 80.9151C9.62633 80.9151 6.05486 92.1964 12.0449 98.4419L13.7742 97.1168C13.7742 97.1168 10.234 84.8038 12.2155 81.9131C8.71845 80.7467 9.62633 80.9151 9.62633 80.9151Z" fill="#FF5252"/>
<path d="M12.0956 81.9106C12.0956 81.9106 12.8161 81.3046 12.0956 80.2128C11.375 79.121 10.0372 79.9723 10.0372 79.9723C10.0372 79.9723 9.55686 81.5475 10.0372 81.9106C10.5176 82.2738 12.0956 81.9106 12.0956 81.9106Z" fill="#F6B9AD"/>
<path d="M13.3659 94.7553C13.3659 95.693 14.1246 96.4531 15.0604 96.4531C15.9962 96.4531 16.7549 95.693 16.7549 94.7553V93.1224C16.7549 92.1847 15.9962 91.4245 15.0604 91.4245C14.1246 91.4245 13.3659 92.1847 13.3659 93.1224V94.7553Z" fill="#F6B9AD"/>
<path opacity="0.2" d="M13.5318 97.8432C13.5318 97.8432 10.0348 85.6816 11.9394 82.6923C12.1076 82.6611 12.2156 82.637 12.2156 82.637L12.2469 82.6082L12.3357 82.637C10.3543 85.5229 13.8945 97.8408 13.8945 97.8408L12.1652 99.1658L12.0139 99.0023L13.5318 97.8432Z" fill="white"/>
<path d="M14.9992 93.1824C17.0711 93.1824 18.7508 91.5006 18.7508 89.426C18.7508 87.3514 17.0711 85.6696 14.9992 85.6696C12.9272 85.6696 11.2476 87.3514 11.2476 89.426C11.2476 91.5006 12.9272 93.1824 14.9992 93.1824Z" fill="#F6B9AD"/>
<path opacity="0.2" d="M16.332 94.7576V93.1223C16.3319 93.0026 16.319 92.8833 16.2936 92.7663C17.0262 92.3896 17.6147 91.7819 17.9681 91.037C18.3216 90.2922 18.4205 89.4515 18.2494 88.6448C18.0784 87.8381 17.647 87.1102 17.0218 86.5733C16.3966 86.0365 15.6124 85.7206 14.79 85.6743H15.0014C15.8429 85.6741 16.6601 85.9571 17.3216 86.478C17.9831 86.9988 18.4505 87.7273 18.6487 88.5462C18.8469 89.3651 18.7643 90.227 18.4142 90.9933C18.0642 91.7595 17.467 92.3857 16.7187 92.7712C16.7441 92.8881 16.757 93.0074 16.7571 93.1271V94.7624C16.7593 95.0039 16.7096 95.243 16.6113 95.4635C16.5131 95.684 16.3686 95.8807 16.1878 96.0404C16.0069 96.2001 15.7938 96.319 15.563 96.3889C15.3322 96.4589 15.089 96.4783 14.8501 96.4458C15.2597 96.3927 15.6361 96.192 15.9088 95.8813C16.1815 95.5707 16.3319 95.1712 16.332 94.7576Z" fill="white"/>
<path d="M11.1875 108.148C11.1875 108.148 18.4241 108.966 18.6907 108.148C19.5554 105.503 17.2496 102.643 18.4025 101.246C19.6034 99.8032 18.6907 97.848 18.6907 97.848C18.6907 96.8517 18.2955 95.8963 17.5919 95.1918C16.8883 94.4873 15.9341 94.0916 14.9391 94.0916C13.9441 94.0916 12.9899 94.4873 12.2863 95.1918C11.5828 95.8963 11.1875 96.8517 11.1875 97.848V108.148Z" fill="#FF5252"/>
<path opacity="0.2" d="M18.4121 101.246C19.613 99.8032 18.7003 97.848 18.7003 97.848C18.7003 96.8517 18.305 95.8963 17.6015 95.1918C16.8979 94.4873 15.9437 94.0916 14.9487 94.0916C14.867 94.0916 14.7878 94.0915 14.7085 94.1036C15.6594 94.1641 16.5516 94.5848 17.2039 95.2803C17.8561 95.9759 18.2194 96.8939 18.2199 97.848C18.2199 97.848 19.1326 99.8032 17.9317 101.246C16.7692 102.643 19.0846 105.5 18.2199 108.148C18.1383 108.401 17.3913 108.497 16.3994 108.511C17.6219 108.523 18.6066 108.442 18.7003 108.148C19.5745 105.498 17.2496 102.643 18.4121 101.246Z" fill="white"/>
<path d="M17.1559 107.908C19.7979 111.657 20.9676 117.323 20.211 122.772L20.1894 122.936H17.9341C17.9341 122.936 18.633 120.875 17.9341 117.241C17.5057 115.062 16.2875 113.12 14.514 111.787L12.3379 122.936H10.2388L12.3379 107.908H17.1559Z" fill="#F6B9AD"/>
<path d="M29.8761 86.2949C29.8761 86.2949 30.7479 85.9293 30.3732 84.6716C29.9985 83.4138 28.4758 83.8371 28.4758 83.8371C28.4758 83.8371 27.5511 85.2006 27.909 85.6912C28.2669 86.1818 29.8761 86.2949 29.8761 86.2949Z" fill="#F6B9AD"/>
<path d="M17.0382 98.4539C17.0382 98.4539 28.281 94.8057 29.8734 86.2947L27.791 85.655C27.791 85.655 19.5168 94.9043 16.0222 94.9692C12.5276 95.0341 17.0382 98.4539 17.0382 98.4539Z" fill="#FF5252"/>
<path opacity="0.2" d="M29.4915 86.3044L29.8397 86.4103C28.2473 94.9212 17.0045 98.5694 17.0045 98.5694L16.8052 98.4131C18.1334 97.9514 28.0072 94.243 29.4915 86.3044Z" fill="white"/>
<g opacity="0.2">
<path opacity="0.2" d="M14.0315 111.787L11.8555 122.936H12.3358L14.4494 112.114C14.3158 111.998 14.1763 111.889 14.0315 111.787Z" fill="white"/>
<path opacity="0.2" d="M17.1561 107.908H16.6758C19.3178 111.657 20.4874 117.323 19.7309 122.772L19.7092 122.936H20.1896L20.2112 122.772C20.9678 117.323 19.8029 111.657 17.1561 107.908Z" fill="white"/>
</g>
<path opacity="0.2" d="M29.6432 86.2203C29.6432 86.2203 30.515 85.8547 30.1404 84.597C30.0949 84.4194 30.008 84.2552 29.887 84.1177C29.7659 83.9802 29.6141 83.8733 29.4438 83.8058C29.6642 83.8461 29.8685 83.9485 30.0327 84.101C30.1969 84.2535 30.3143 84.4498 30.3709 84.6667C30.7456 85.9221 29.8738 86.29 29.8738 86.29C29.3964 86.2535 28.9244 86.1648 28.4663 86.0255C28.8525 86.1231 29.2462 86.1882 29.6432 86.2203Z" fill="white"/>
<path d="M11.1874 107.739L6.62402 117.359C9.28536 117.492 11.934 117.813 14.5499 118.321C19.5937 119.283 21.9955 116.878 21.9955 116.878L18.7411 107.739H11.1874Z" fill="#263238"/>
<path d="M12.3979 122.89C12.3979 122.89 14.7997 123.371 14.3193 124.333H9.99609L10.2363 122.89H12.3979Z" fill="#FF5252"/>
<path d="M20.0839 122.89C20.0839 122.89 22.4857 123.371 22.0054 124.333H17.6821L17.9223 122.89H20.0839Z" fill="#FF5252"/>
<path d="M18.4027 86.3357C18.4027 86.3357 12.6384 94.5123 15.2804 97.8792L4.95264 97.6387C4.95264 97.6387 7.83479 79.121 18.4027 86.3357Z" fill="#FCCC63"/>
<path opacity="0.2" d="M18.4027 86.3357C16.9136 85.3184 15.5782 84.8134 14.3797 84.6956C15.3873 85.0125 16.3394 85.4847 17.2018 86.0952C17.2018 86.0952 11.4375 94.2719 14.0795 97.6387L4.98867 97.4271C4.96465 97.5642 4.95264 97.6387 4.95264 97.6387L15.2804 97.8792C12.6384 94.5123 18.4027 86.3357 18.4027 86.3357Z" fill="white"/>
<path opacity="0.2" d="M18.753 107.739H18.0325L21.2869 116.878C21.2869 116.878 19.7353 118.429 16.5073 118.54C20.2229 118.66 22.0074 116.878 22.0074 116.878L18.753 107.739Z" fill="white"/>
<path opacity="0.2" d="M12.3978 122.89H11.9175C11.9175 122.89 14.3193 123.371 13.8389 124.333H14.3193C14.7996 123.371 12.3978 122.89 12.3978 122.89Z" fill="white"/>
<path opacity="0.2" d="M20.0839 122.89H19.6035C19.6035 122.89 22.0053 123.371 21.525 124.333H22.0053C22.4857 123.371 20.0839 122.89 20.0839 122.89Z" fill="white"/>
<path d="M212.228 40.3253H120.239V43.8124H212.228V40.3253Z" fill="#F5F5F5"/>
<path d="M214 39.2118H118.409V158.495H214V39.2118Z" fill="url(#paint16_linear_171_1739)"/>
<path d="M212.228 43.8124H120.239V154.317H212.228V43.8124Z" fill="white"/>
<path d="M122.371 42.9706C122.836 42.9706 123.212 42.5938 123.212 42.1289C123.212 41.6641 122.836 41.2872 122.371 41.2872C121.907 41.2872 121.531 41.6641 121.531 42.1289C121.531 42.5938 121.907 42.9706 122.371 42.9706Z" fill="#FF5252"/>
<path d="M124.682 42.9706C125.146 42.9706 125.523 42.5938 125.523 42.1289C125.523 41.6641 125.146 41.2872 124.682 41.2872C124.218 41.2872 123.841 41.6641 123.841 42.1289C123.841 42.5938 124.218 42.9706 124.682 42.9706Z" fill="#FFFF00"/>
<path d="M126.995 42.9706C127.459 42.9706 127.836 42.5938 127.836 42.1289C127.836 41.6641 127.459 41.2872 126.995 41.2872C126.531 41.2872 126.154 41.6641 126.154 42.1289C126.154 42.5938 126.531 42.9706 126.995 42.9706Z" fill="#69F0AE"/>
<g opacity="0.2">
<path opacity="0.2" d="M206.703 48.7424H126.003V50.9068H206.703V48.7424Z" fill="#6C63FF"/>
</g>
<path d="M160.349 58.1215H125.522V95.1568H160.349V58.1215Z" fill="url(#paint17_linear_171_1739)"/>
<path d="M159.628 59.324H126.243V93.9545H159.628V59.324Z" fill="white"/>
<path d="M206.703 76.6392H171.877V113.675H206.703V76.6392Z" fill="url(#paint18_linear_171_1739)"/>
<path d="M205.983 77.8416H172.598V112.472H205.983V77.8416Z" fill="white"/>
<path d="M208.144 122.332H126.243V147.824H208.144V122.332Z" fill="url(#paint19_linear_171_1739)"/>
<path opacity="0.5" d="M206.703 124.016H127.924V146.862H206.703V124.016Z" fill="#6C63FF"/>
<path opacity="0.5" d="M129.846 126.18H206.703V124.016H127.924V146.862H129.846V126.18Z" fill="white"/>
<path d="M154.097 66.9114C151.819 64.2601 148.683 62.495 145.237 61.9248C141.79 61.3545 138.254 62.0154 135.245 63.7919C132.236 65.5683 129.947 68.3473 128.777 71.6428C127.608 74.9383 127.632 78.5406 128.847 81.8198C130.061 85.099 132.388 87.8464 135.421 89.5815C138.454 91.3167 141.999 91.9291 145.437 91.3118C148.875 90.6945 151.987 88.8867 154.229 86.2046C156.47 83.5224 157.699 80.1366 157.7 76.6392C157.704 73.0687 156.425 69.6158 154.097 66.9114ZM148.093 85.5421C146.132 86.705 143.843 87.1863 141.581 86.911C139.32 86.6357 137.212 85.6192 135.588 84.0198C133.963 82.4205 132.912 80.3281 132.598 78.0684C132.285 75.8087 132.726 73.5087 133.854 71.5265C134.982 69.5442 136.733 67.9911 138.834 67.1089C140.935 66.2268 143.269 66.0651 145.471 66.649C147.674 67.233 149.622 68.5299 151.012 70.3376C152.401 72.1454 153.155 74.3626 153.156 76.644C153.161 78.4398 152.697 80.2059 151.81 81.7668C150.924 83.3278 149.644 84.6293 148.1 85.5421H148.093Z" fill="url(#paint20_linear_171_1739)"/>
<path d="M150.273 70.2085L153.551 67.3828C152.223 65.8339 150.576 64.5912 148.723 63.7398C146.87 62.8884 144.854 62.4485 142.815 62.4503V66.7791C144.232 66.7788 145.632 67.085 146.919 67.6769C148.206 68.2689 149.35 69.1325 150.273 70.2085Z" fill="#FF5252"/>
<path d="M142.816 86.4968C141.414 86.4976 140.028 86.1966 138.752 85.6142L136.967 89.5607C139.046 90.5044 141.321 90.9317 143.599 90.8061C145.878 90.6805 148.092 90.0057 150.055 88.8392L147.845 85.114C146.324 86.0221 144.586 86.5 142.816 86.4968Z" fill="#69F0AE"/>
<path d="M156.986 76.6368C156.99 73.2381 155.771 69.9518 153.551 67.3804L150.273 70.2061C151.214 71.2959 151.905 72.5792 152.297 73.9656C152.689 75.3521 152.772 76.8077 152.54 78.2297C152.309 79.6518 151.768 81.0056 150.957 82.1956C150.145 83.3855 149.083 84.3826 147.845 85.1165L150.054 88.8416C152.168 87.5841 153.918 85.7977 155.133 83.6579C156.349 81.518 156.987 79.0984 156.986 76.6368Z" fill="#FF9800"/>
<path d="M132.968 76.6367C132.968 74.0217 134.006 71.5137 135.853 69.6646C137.699 67.8155 140.204 66.7767 142.816 66.7767V62.4479C139.577 62.448 136.436 63.5588 133.916 65.5954C131.396 67.6321 129.649 70.4716 128.965 73.6412C128.281 76.8109 128.702 80.1194 130.158 83.0159C131.614 85.9125 134.017 88.2222 136.967 89.5606L138.752 85.6142C137.028 84.8323 135.566 83.5698 134.541 81.9777C133.515 80.3856 132.969 78.5313 132.968 76.6367Z" fill="#6C63FF"/>
<path d="M202.62 82.8918H177.161V87.2207H202.62V82.8918Z" fill="url(#paint21_linear_171_1739)"/>
<path d="M202.38 83.1323H177.401V86.9802H202.38V83.1323Z" fill="#6C63FF"/>
<path d="M195.655 89.6256H177.401V93.4734H195.655V89.6256Z" fill="#FF5252"/>
<path d="M189.891 96.1188H177.401V99.9666H189.891V96.1188Z" fill="#69F0AE"/>
<path d="M199.978 102.612H177.401V106.46H199.978V102.612Z" fill="#FF9800"/>
<path d="M162.03 100.929H126.243V103.093H162.03V100.929Z" fill="#F5F5F5"/>
<path d="M146.418 104.536H126.243V106.7H146.418V104.536Z" fill="#F5F5F5"/>
<path d="M156.986 104.536H150.021V106.7H156.986V104.536Z" fill="#F5F5F5"/>
<path d="M156.986 112.472H150.021V114.636H156.986V112.472Z" fill="#F5F5F5"/>
<path d="M146.418 111.751H126.243V113.915H146.418V111.751Z" fill="#F5F5F5"/>
<path d="M162.03 108.143H126.243V110.308H162.03V108.143Z" fill="#F5F5F5"/>
<path d="M207.184 58.3619H171.397V60.5263H207.184V58.3619Z" fill="#F5F5F5"/>
<path d="M191.572 61.9694H171.397V64.1338H191.572V61.9694Z" fill="#F5F5F5"/>
<path d="M202.14 61.9694H195.175V64.1338H202.14V61.9694Z" fill="#F5F5F5"/>
<path d="M202.14 69.9055H195.175V72.0699H202.14V69.9055Z" fill="#F5F5F5"/>
<path d="M191.572 69.184H171.397V71.3484H191.572V69.184Z" fill="#F5F5F5"/>
<path d="M207.184 65.5767H171.397V67.7411H207.184V65.5767Z" fill="#F5F5F5"/>
<path d="M182.685 168.266C184.145 168.266 185.327 167.081 185.327 165.62C185.327 164.159 184.145 162.975 182.685 162.975C181.226 162.975 180.043 164.159 180.043 165.62C180.043 167.081 181.226 168.266 182.685 168.266Z" fill="url(#paint22_linear_171_1739)"/>
<path d="M182.686 167.544C183.747 167.544 184.607 166.683 184.607 165.62C184.607 164.558 183.747 163.696 182.686 163.696C181.624 163.696 180.764 164.558 180.764 165.62C180.764 166.683 181.624 167.544 182.686 167.544Z" fill="#FF5252"/>
<path d="M187.249 136.281H104.627V165.38H187.249V136.281Z" fill="url(#paint23_linear_171_1739)"/>
<path d="M185.808 137.483H107.029V160.33H185.808V137.483Z" fill="white"/>
<path d="M109.671 156.001H182.686" stroke="#6C63FF" stroke-width="3" stroke-miterlimit="10"/>
<path d="M121.199 142.052H110.391V155.279H121.199V142.052Z" fill="url(#paint24_linear_171_1739)"/>
<path d="M120.599 142.654H110.992V154.919H120.599V142.654Z" fill="#6C63FF"/>
<path d="M180.764 151.431H171.157V155.279H180.764V151.431Z" fill="#69F0AE"/>
<path d="M162.751 146.381H153.144V155.039H162.751V146.381Z" fill="#FF9800"/>
<path d="M141.614 147.824H132.007V155.039H141.614V147.824Z" fill="#FF5252"/>
<path d="M185.808 160.329H107.029V163.696H185.808V160.329Z" fill="#FF5252"/>
<path d="M110.391 168.266C111.851 168.266 113.033 167.081 113.033 165.62C113.033 164.159 111.851 162.975 110.391 162.975C108.932 162.975 107.75 164.159 107.75 165.62C107.75 167.081 108.932 168.266 110.391 168.266Z" fill="url(#paint25_linear_171_1739)"/>
<path d="M110.391 167.544C111.452 167.544 112.313 166.683 112.313 165.62C112.313 164.558 111.452 163.696 110.391 163.696C109.33 163.696 108.47 164.558 108.47 165.62C108.47 166.683 109.33 167.544 110.391 167.544Z" fill="#FF5252"/>
<path d="M107.029 138.445H105.107V163.696H107.029V138.445Z" fill="#FF5252"/>
<path opacity="0.2" d="M107.029 138.445H105.107V163.696H107.029V138.445Z" fill="black"/>
<path d="M107.156 141.129C107.156 141.102 107.156 141.078 107.156 141.052C107.156 141.025 107.156 140.972 107.156 140.934C107.156 140.896 107.156 140.883 107.142 140.859C107.127 140.835 107.125 140.787 107.113 140.754C107.101 140.72 107.098 140.708 107.089 140.684C107.079 140.66 107.06 140.617 107.046 140.583L107.017 140.523C106.998 140.489 106.976 140.455 106.954 140.424L106.923 140.378C106.892 140.335 106.858 140.293 106.822 140.253C106.631 140.049 106.404 139.881 106.152 139.758C106.349 139.546 106.496 139.293 106.582 139.017C106.607 138.943 106.626 138.868 106.64 138.791C106.64 138.767 106.64 138.743 106.64 138.721C106.646 138.675 106.65 138.629 106.652 138.582C106.652 138.556 106.652 138.531 106.652 138.505C106.652 138.479 106.652 138.426 106.652 138.387C106.652 138.349 106.652 138.337 106.637 138.313C106.623 138.289 106.62 138.24 106.608 138.207C106.596 138.173 106.594 138.161 106.584 138.137C106.575 138.113 106.556 138.07 106.541 138.036L106.512 137.976C106.493 137.942 106.472 137.909 106.45 137.877L106.419 137.832C106.387 137.788 106.354 137.747 106.318 137.707C106.078 137.455 105.787 137.258 105.465 137.129C105.465 137.129 103.94 137.695 103.839 138.315C102.72 138.556 96.1967 139.914 91.7173 139.806L91.6837 139.717C91.684 138.992 91.4867 138.28 91.113 137.658C90.7393 137.036 90.2034 136.529 89.5629 136.189V134.679C89.5663 134.615 89.5663 134.551 89.5629 134.486C89.5565 134.425 89.5469 134.364 89.5341 134.304L89.5629 134.287L89.6854 134.22L89.8631 134.111L89.976 134.037C90.0593 133.979 90.1393 133.918 90.2162 133.854L90.3075 133.775C90.3627 133.727 90.4155 133.678 90.4684 133.628L90.5621 133.537C90.6277 133.469 90.6902 133.4 90.7494 133.33L90.8142 133.248C90.8703 133.177 90.9239 133.105 90.9752 133.032L91.04 132.933C91.0864 132.861 91.1313 132.787 91.1745 132.712L91.2154 132.64C91.2682 132.543 91.3162 132.442 91.3595 132.341L91.3955 132.25C91.4291 132.168 91.4595 132.088 91.4867 132.009L91.5156 131.92C91.5492 131.81 91.578 131.699 91.602 131.586C91.602 131.565 91.602 131.54 91.614 131.519C91.6317 131.423 91.6461 131.326 91.6573 131.228C91.6573 131.194 91.6573 131.163 91.6573 131.129C91.6573 131.009 91.6765 130.889 91.6765 130.766C91.6764 130.083 91.5002 129.411 91.1649 128.816C91.4219 128.753 91.578 128.703 91.5588 128.679C91.4603 128.546 91.3619 128.421 91.2586 128.301L91.1601 128.188C91.088 128.106 91.0184 128.029 90.9463 127.948L90.8311 127.83C90.759 127.758 90.687 127.69 90.6149 127.625L90.502 127.524C90.4107 127.447 90.3195 127.373 90.2282 127.301L90.1682 127.253C90.0577 127.171 89.9472 127.094 89.8343 127.012L89.7094 126.935C89.6374 126.889 89.5629 126.846 89.4885 126.808L89.3395 126.731L89.133 126.632L88.9817 126.565C88.9096 126.533 88.8352 126.507 88.7607 126.481L88.6238 126.43C88.5133 126.394 88.4028 126.36 88.2924 126.331L88.1218 126.293L87.9369 126.254L87.752 126.226L87.5814 126.206L87.3917 126.19H87.2284H87.0386C86.9345 126.19 86.8305 126.194 86.7264 126.204C84.2694 126.406 82.1173 128.554 82.1173 131.976V134.799H85.9602V136.083C85.2695 136.402 84.6845 136.913 84.2742 137.554C83.8639 138.195 83.6455 138.941 83.6449 139.703V150.647L80.3832 165.651H80.34L79.6987 168.516L84.3006 169.261L84.4999 169.292C84.9803 169.086 84.1757 168.116 83.813 167.369C83.776 167.291 83.7439 167.21 83.7169 167.128C83.6663 166.977 83.6356 166.82 83.6257 166.662L87.1611 155.048H87.1443L87.2284 154.777C87.2284 154.777 91.7293 156.7 92.887 160.57C93.8261 163.696 93.2425 165.731 92.9879 166.39H92.9711V166.428C92.9206 166.553 92.8846 166.623 92.8846 166.623H92.9711V168.747H97.8371C98.2886 168.518 97.3303 167.852 96.8524 167.304C96.6959 167.13 96.5867 166.919 96.5353 166.69H96.617L96.6554 166.517C97.2672 163.672 97.1267 160.717 96.2481 157.943C95.3694 155.169 93.7828 152.672 91.6453 150.7C91.6542 150.688 91.6614 150.674 91.6669 150.659C92.1261 149.252 92.4093 147.793 92.5099 146.316C96.2303 146.672 101.18 146.417 104.882 143.546C105.235 143.278 105.572 142.991 105.893 142.685C106.212 142.661 106.772 142.483 107.082 141.578C107.106 141.505 107.126 141.429 107.139 141.352C107.139 141.328 107.139 141.304 107.139 141.283C107.148 141.232 107.153 141.18 107.156 141.129Z" fill="url(#paint26_linear_171_1739)"/>
<path d="M87.6632 145.366C87.6632 145.366 98.9276 148.952 105.168 142.961L103.844 141.227C103.844 141.227 91.7391 143.928 88.8545 141.949C85.97 139.97 87.6632 145.366 87.6632 145.366Z" fill="#6C63FF"/>
<path opacity="0.2" d="M104.85 142.735L105.071 143.024C98.8268 149.017 87.5672 145.429 87.5672 145.429C87.5672 145.429 87.5383 145.337 87.4951 145.188C88.8377 145.59 99.0285 148.334 104.85 142.735Z" fill="white"/>
<path d="M104.927 142.959C104.927 142.959 105.849 143.168 106.275 141.93C106.7 140.691 105.218 140.145 105.218 140.145C105.218 140.145 103.673 140.715 103.678 141.321C103.683 141.927 104.927 142.959 104.927 142.959Z" fill="#985454"/>
<path opacity="0.2" d="M104.781 142.764C104.781 142.764 105.703 142.973 106.128 141.735C106.194 141.564 106.218 141.38 106.2 141.198C106.181 141.015 106.119 140.84 106.02 140.686C106.176 140.847 106.283 141.05 106.328 141.27C106.373 141.489 106.354 141.718 106.274 141.927C105.849 143.168 104.927 142.956 104.927 142.956C104.56 142.648 104.229 142.301 103.938 141.92C104.195 142.224 104.477 142.507 104.781 142.764Z" fill="white"/>
<path d="M92.9976 165.281H96.3337C96.3213 165.438 96.343 165.597 96.3973 165.745C96.4516 165.893 96.5372 166.028 96.6483 166.14C97.0974 166.659 98.0005 167.287 97.5754 167.501H92.9976V165.281Z" fill="#6C63FF"/>
<path opacity="0.2" d="M96.4059 166.14C96.2948 166.028 96.2092 165.893 96.1549 165.745C96.1006 165.597 96.0789 165.438 96.0913 165.281H96.3314C96.3191 165.438 96.3408 165.597 96.3951 165.745C96.4494 165.893 96.535 166.028 96.6461 166.14C97.0952 166.659 97.9983 167.287 97.5732 167.501H97.333C97.7581 167.287 96.855 166.662 96.4059 166.14Z" fill="white"/>
<path d="M81.1159 164.593L84.2383 165.106C84.1519 165.478 84.2022 165.869 84.38 166.207C84.721 166.929 85.4872 167.828 85.026 168.023L80.5059 167.301L81.1159 164.593Z" fill="#6C63FF"/>
<path opacity="0.2" d="M84.1423 166.205C83.9646 165.866 83.9143 165.475 84.0006 165.103L81.1064 164.622V164.584L84.2288 165.096C84.1425 165.468 84.1928 165.859 84.3705 166.197C84.7115 166.919 85.4777 167.818 85.0166 168.013L84.8268 167.982C85.1823 167.746 84.469 166.883 84.1423 166.205Z" fill="white"/>
<path d="M86.3806 137.081C86.3806 138.019 87.1392 138.779 88.0751 138.779C89.0109 138.779 89.7695 138.019 89.7695 137.081V135.449C89.7695 134.511 89.0109 133.751 88.0751 133.751C87.1392 133.751 86.3806 134.511 86.3806 135.449V137.081Z" fill="#985454"/>
<path d="M88.0138 135.509C90.0858 135.509 91.7654 133.827 91.7654 131.752C91.7654 129.678 90.0858 127.996 88.0138 127.996C85.9419 127.996 84.2622 129.678 84.2622 131.752C84.2622 133.827 85.9419 135.509 88.0138 135.509Z" fill="#985454"/>
<path opacity="0.2" d="M89.3466 137.084V135.448C89.3465 135.329 89.3336 135.209 89.3082 135.092C90.0409 134.716 90.6293 134.108 90.9828 133.363C91.3363 132.618 91.4351 131.778 91.2641 130.971C91.0931 130.164 90.6617 129.436 90.0365 128.9C89.4113 128.363 88.627 128.047 87.8047 128H88.016C88.8576 128 89.6748 128.283 90.3363 128.804C90.9978 129.325 91.4652 130.053 91.6633 130.872C91.8615 131.691 91.7789 132.553 91.4289 133.319C91.0788 134.086 90.4817 134.712 89.7333 135.097C89.7587 135.214 89.7716 135.334 89.7718 135.453V137.089C89.7739 137.33 89.7242 137.569 89.626 137.79C89.5278 138.01 89.3833 138.207 89.2024 138.367C89.0215 138.526 88.8084 138.645 88.5776 138.715C88.3468 138.785 88.1037 138.804 87.8647 138.772C88.2744 138.719 88.6507 138.518 88.9234 138.207C89.1961 137.897 89.3466 137.497 89.3466 137.084Z" fill="white"/>
<path d="M84.2021 150.474C84.2021 150.474 91.4387 151.292 91.7053 150.474C93.5811 144.717 91.7053 140.174 91.7053 140.174C91.7053 139.178 91.3101 138.222 90.6065 137.518C89.903 136.813 88.9487 136.418 87.9537 136.418C86.9588 136.418 86.0045 136.813 85.301 137.518C84.5974 138.222 84.2021 139.178 84.2021 140.174V150.474Z" fill="#6C63FF"/>
<path d="M84.2019 150.474L80.9331 165.502H84.2019L87.5909 154.353C87.5909 154.353 91.8277 156.171 92.9157 159.808C94.0037 163.444 92.9157 165.502 92.9157 165.502H96.4319L96.4679 165.339C97.0456 162.661 96.9103 159.879 96.0757 157.27C95.241 154.661 93.7364 152.317 91.7124 150.474" fill="#263238"/>
<path opacity="0.2" d="M91.2824 150.474C93.1582 144.717 91.2824 140.174 91.2824 140.174C91.2826 139.22 90.92 138.301 90.2683 137.605C89.6165 136.908 88.7245 136.487 87.7734 136.425C87.8527 136.425 87.9344 136.425 88.0136 136.425C89.0086 136.425 89.9628 136.821 90.6664 137.525C91.37 138.23 91.7652 139.185 91.7652 140.181C91.7652 140.181 93.641 144.726 91.7652 150.481C91.6691 150.775 90.6796 150.857 89.4499 150.845C90.449 150.823 91.2008 150.727 91.2824 150.474Z" fill="white"/>
<g opacity="0.2">
<path opacity="0.2" d="M87.5285 154.618L84.202 165.563H83.7217L87.1106 154.413C87.1106 154.413 87.2667 154.481 87.5285 154.618Z" fill="white"/>
<path opacity="0.2" d="M91.2227 150.534H91.703C93.727 152.378 95.2317 154.721 96.0663 157.33C96.9009 159.939 97.0362 162.721 96.4586 165.399L96.4225 165.563H95.9422L95.9782 165.399C96.5558 162.721 96.4206 159.939 95.586 157.33C94.7513 154.721 93.2466 152.378 91.2227 150.534Z" fill="white"/>
</g>
<path d="M87.1828 142.961C87.1828 142.961 98.4472 146.547 104.687 140.556L103.364 138.823C103.364 138.823 91.2586 141.523 88.3741 139.544C85.4895 137.565 87.1828 142.961 87.1828 142.961Z" fill="#6C63FF"/>
<path opacity="0.2" d="M104.37 140.33L104.591 140.619C98.3463 146.612 87.0867 143.024 87.0867 143.024C87.0867 143.024 87.0579 142.933 87.0146 142.783C88.3573 143.185 98.5481 145.929 104.37 140.33Z" fill="white"/>
<path d="M104.447 140.554C104.447 140.554 105.369 140.763 105.794 139.525C106.219 138.286 104.737 137.74 104.737 137.74C104.737 137.74 103.193 138.31 103.198 138.916C103.203 139.522 104.447 140.554 104.447 140.554Z" fill="#985454"/>
<path opacity="0.2" d="M104.301 140.359C104.301 140.359 105.223 140.568 105.648 139.33C105.714 139.159 105.738 138.975 105.72 138.793C105.701 138.61 105.639 138.435 105.54 138.281C105.696 138.442 105.803 138.645 105.848 138.865C105.893 139.085 105.874 139.313 105.794 139.522C105.369 140.763 104.447 140.552 104.447 140.552C104.08 140.243 103.749 139.896 103.458 139.515C103.715 139.819 103.997 140.102 104.301 140.359Z" fill="white"/>
<path d="M88.2946 130.506L88.0545 135.557H82.7705V132.875C82.7705 127.491 88.4556 125.446 91.6572 129.773C91.7364 129.891 88.2946 130.506 88.2946 130.506Z" fill="#263238"/>
<path opacity="0.2" d="M87.1084 127.462C88.4558 127.572 89.8416 128.308 90.9369 129.787C91.0161 129.893 87.5743 130.509 87.5743 130.509L87.3342 135.559H88.0547L88.2949 130.509C88.2949 130.509 91.7367 129.893 91.6574 129.787C90.3676 128.041 88.672 127.344 87.1084 127.462Z" fill="white"/>
</g>
<defs>
<linearGradient id="paint0_linear_171_1739" x1="51.307" y1="116.878" x2="51.307" y2="0" gradientUnits="userSpaceOnUse">
<stop stop-color="#808080" stop-opacity="0.25"/>
<stop offset="0.54" stop-color="#808080" stop-opacity="0.12"/>
<stop offset="1" stop-color="#808080" stop-opacity="0.1"/>
</linearGradient>
<linearGradient id="paint1_linear_171_1739" x1="2782.15" y1="1073.77" x2="2782.15" y2="1044.67" gradientUnits="userSpaceOnUse">
<stop stop-color="#808080" stop-opacity="0.25"/>
<stop offset="0.54" stop-color="#808080" stop-opacity="0.12"/>
<stop offset="1" stop-color="#808080" stop-opacity="0.1"/>
</linearGradient>
<linearGradient id="paint2_linear_171_1739" x1="2782.15" y1="1235.39" x2="2782.15" y2="1206.3" gradientUnits="userSpaceOnUse">
<stop stop-color="#808080" stop-opacity="0.25"/>
<stop offset="0.54" stop-color="#808080" stop-opacity="0.12"/>
<stop offset="1" stop-color="#808080" stop-opacity="0.1"/>
</linearGradient>
<linearGradient id="paint3_linear_171_1739" x1="4031.56" y1="1235.39" x2="4031.56" y2="1206.3" gradientUnits="userSpaceOnUse">
<stop stop-color="#808080" stop-opacity="0.25"/>
<stop offset="0.54" stop-color="#808080" stop-opacity="0.12"/>
<stop offset="1" stop-color="#808080" stop-opacity="0.1"/>
</linearGradient>
<linearGradient id="paint4_linear_171_1739" x1="1533.97" y1="236.882" x2="1533.97" y2="207.783" gradientUnits="userSpaceOnUse">
<stop stop-color="#808080" stop-opacity="0.25"/>
<stop offset="0.54" stop-color="#808080" stop-opacity="0.12"/>
<stop offset="1" stop-color="#808080" stop-opacity="0.1"/>
</linearGradient>
<linearGradient id="paint5_linear_171_1739" x1="1533.97" y1="280.17" x2="1533.97" y2="251.071" gradientUnits="userSpaceOnUse">
<stop stop-color="#808080" stop-opacity="0.25"/>
<stop offset="0.54" stop-color="#808080" stop-opacity="0.12"/>
<stop offset="1" stop-color="#808080" stop-opacity="0.1"/>
</linearGradient>
<linearGradient id="paint6_linear_171_1739" x1="1533.97" y1="323.457" x2="1533.97" y2="294.358" gradientUnits="userSpaceOnUse">
<stop stop-color="#808080" stop-opacity="0.25"/>
<stop offset="0.54" stop-color="#808080" stop-opacity="0.12"/>
<stop offset="1" stop-color="#808080" stop-opacity="0.1"/>
</linearGradient>
<linearGradient id="paint7_linear_171_1739" x1="1533.97" y1="366.745" x2="1533.97" y2="337.646" gradientUnits="userSpaceOnUse">
<stop stop-color="#808080" stop-opacity="0.25"/>
<stop offset="0.54" stop-color="#808080" stop-opacity="0.12"/>
<stop offset="1" stop-color="#808080" stop-opacity="0.1"/>
</linearGradient>
<linearGradient id="paint8_linear_171_1739" x1="18881.2" y1="12020.1" x2="18881.2" y2="6609.13" gradientUnits="userSpaceOnUse">
<stop stop-color="#808080" stop-opacity="0.25"/>
<stop offset="0.54" stop-color="#808080" stop-opacity="0.12"/>
<stop offset="1" stop-color="#808080" stop-opacity="0.1"/>
</linearGradient>
<linearGradient id="paint9_linear_171_1739" x1="35422.1" y1="12800.4" x2="34917.9" y2="7267.1" gradientUnits="userSpaceOnUse">
<stop stop-color="#808080" stop-opacity="0.25"/>
<stop offset="0.54" stop-color="#808080" stop-opacity="0.12"/>
<stop offset="1" stop-color="#808080" stop-opacity="0.1"/>
</linearGradient>
<linearGradient id="paint10_linear_171_1739" x1="1643.53" y1="991.348" x2="1639.25" y2="944.406" gradientUnits="userSpaceOnUse">
<stop stop-color="#808080" stop-opacity="0.25"/>
<stop offset="0.54" stop-color="#808080" stop-opacity="0.12"/>
<stop offset="1" stop-color="#808080" stop-opacity="0.1"/>
</linearGradient>
<linearGradient id="paint11_linear_171_1739" x1="1792.71" y1="962.345" x2="1788.43" y2="915.404" gradientUnits="userSpaceOnUse">
<stop stop-color="#808080" stop-opacity="0.25"/>
<stop offset="0.54" stop-color="#808080" stop-opacity="0.12"/>
<stop offset="1" stop-color="#808080" stop-opacity="0.1"/>
</linearGradient>
<linearGradient id="paint12_linear_171_1739" x1="146.196" y1="104.116" x2="146.196" y2="104.099" gradientUnits="userSpaceOnUse">
<stop stop-color="#808080" stop-opacity="0.25"/>
<stop offset="0.54" stop-color="#808080" stop-opacity="0.12"/>
<stop offset="1" stop-color="#808080" stop-opacity="0.1"/>
</linearGradient>
<linearGradient id="paint13_linear_171_1739" x1="9565.63" y1="24228.8" x2="9565.63" y2="17048.4" gradientUnits="userSpaceOnUse">
<stop stop-color="#808080" stop-opacity="0.25"/>
<stop offset="0.54" stop-color="#808080" stop-opacity="0.12"/>
<stop offset="1" stop-color="#808080" stop-opacity="0.1"/>
</linearGradient>
<linearGradient id="paint14_linear_171_1739" x1="30.6451" y1="110.794" x2="30.6451" y2="110.771" gradientUnits="userSpaceOnUse">
<stop stop-color="#808080" stop-opacity="0.25"/>
<stop offset="0.54" stop-color="#808080" stop-opacity="0.12"/>
<stop offset="1" stop-color="#808080" stop-opacity="0.1"/>
</linearGradient>
<linearGradient id="paint15_linear_171_1739" x1="6353.01" y1="30257.2" x2="6353.01" y2="20398.9" gradientUnits="userSpaceOnUse">
<stop stop-color="#808080" stop-opacity="0.25"/>
<stop offset="0.54" stop-color="#808080" stop-opacity="0.12"/>
<stop offset="1" stop-color="#808080" stop-opacity="0.1"/>
</linearGradient>
<linearGradient id="paint16_linear_171_1739" x1="66267.7" y1="78652.5" x2="66267.7" y2="19488.3" gradientUnits="userSpaceOnUse">
<stop stop-color="#808080" stop-opacity="0.25"/>
<stop offset="0.54" stop-color="#808080" stop-opacity="0.12"/>
<stop offset="1" stop-color="#808080" stop-opacity="0.1"/>
</linearGradient>
<linearGradient id="paint17_linear_171_1739" x1="20851.2" y1="14712.3" x2="20851.2" y2="9008.83" gradientUnits="userSpaceOnUse">
<stop stop-color="#808080" stop-opacity="0.25"/>
<stop offset="0.54" stop-color="#808080" stop-opacity="0.12"/>
<stop offset="1" stop-color="#808080" stop-opacity="0.1"/>
</linearGradient>
<linearGradient id="paint18_linear_171_1739" x1="27619" y1="17582.5" x2="27619" y2="11879.1" gradientUnits="userSpaceOnUse">
<stop stop-color="#808080" stop-opacity="0.25"/>
<stop offset="0.54" stop-color="#808080" stop-opacity="0.12"/>
<stop offset="1" stop-color="#808080" stop-opacity="0.1"/>
</linearGradient>
<linearGradient id="paint19_linear_171_1739" x1="57139.3" y1="15791.7" x2="57139.3" y2="13089.5" gradientUnits="userSpaceOnUse">
<stop stop-color="#808080" stop-opacity="0.25"/>
<stop offset="0.54" stop-color="#808080" stop-opacity="0.12"/>
<stop offset="1" stop-color="#808080" stop-opacity="0.1"/>
</linearGradient>
<linearGradient id="paint20_linear_171_1739" x1="22438.4" y1="14231.1" x2="22438.4" y2="10533.3" gradientUnits="userSpaceOnUse">
<stop stop-color="#808080" stop-opacity="0.25"/>
<stop offset="0.54" stop-color="#808080" stop-opacity="0.12"/>
<stop offset="1" stop-color="#808080" stop-opacity="0.1"/>
</linearGradient>
<linearGradient id="paint21_linear_171_1739" x1="20305.6" y1="1652.87" x2="20305.6" y2="1574.95" gradientUnits="userSpaceOnUse">
<stop stop-color="#808080" stop-opacity="0.25"/>
<stop offset="0.54" stop-color="#808080" stop-opacity="0.12"/>
<stop offset="1" stop-color="#808080" stop-opacity="0.1"/>
</linearGradient>
<linearGradient id="paint22_linear_171_1739" x1="4199.12" y1="3864.83" x2="4199.12" y2="3748.44" gradientUnits="userSpaceOnUse">
<stop stop-color="#808080" stop-opacity="0.25"/>
<stop offset="0.54" stop-color="#808080" stop-opacity="0.12"/>
<stop offset="1" stop-color="#808080" stop-opacity="0.1"/>
</linearGradient>
<linearGradient id="paint23_linear_171_1739" x1="50307.3" y1="20147.2" x2="50307.3" y2="16626.2" gradientUnits="userSpaceOnUse">
<stop stop-color="#808080" stop-opacity="0.25"/>
<stop offset="0.54" stop-color="#808080" stop-opacity="0.12"/>
<stop offset="1" stop-color="#808080" stop-opacity="0.1"/>
</linearGradient>
<linearGradient id="paint24_linear_171_1739" x1="5321.19" y1="8682.43" x2="5321.19" y2="7954.94" gradientUnits="userSpaceOnUse">
<stop stop-color="#808080" stop-opacity="0.25"/>
<stop offset="0.54" stop-color="#808080" stop-opacity="0.12"/>
<stop offset="1" stop-color="#808080" stop-opacity="0.1"/>
</linearGradient>
<linearGradient id="paint25_linear_171_1739" x1="2536.33" y1="3864.83" x2="2536.33" y2="3748.44" gradientUnits="userSpaceOnUse">
<stop stop-color="#808080" stop-opacity="0.25"/>
<stop offset="0.54" stop-color="#808080" stop-opacity="0.12"/>
<stop offset="1" stop-color="#808080" stop-opacity="0.1"/>
</linearGradient>
<linearGradient id="paint26_linear_171_1739" x1="13433.6" y1="30677.1" x2="16571.9" y2="30677.1" gradientUnits="userSpaceOnUse">
<stop stop-color="#808080" stop-opacity="0.25"/>
<stop offset="0.54" stop-color="#808080" stop-opacity="0.12"/>
<stop offset="1" stop-color="#808080" stop-opacity="0.1"/>
</linearGradient>
<clipPath id="clip0_171_1739">
<rect width="214" height="171" fill="white"/>
</clipPath>
</defs>
</svg>
