<svg width="32" height="22" viewBox="0 0 32 22" fill="none" xmlns="http://www.w3.org/2000/svg">
<path d="M31.0957 3.70508C30.7559 2.3457 29.6797 1.26953 28.377 0.929688C25.9414 0.25 16.3125 0.25 16.3125 0.25C16.3125 0.25 6.62695 0.25 4.19141 0.929688C2.88867 1.26953 1.8125 2.3457 1.47266 3.70508C0.792969 6.08398 0.792969 11.1816 0.792969 11.1816C0.792969 11.1816 0.792969 16.2227 1.47266 18.6582C1.8125 20.0176 2.88867 21.0371 4.19141 21.377C6.62695 22 16.3125 22 16.3125 22C16.3125 22 25.9414 22 28.377 21.377C29.6797 21.0371 30.7559 20.0176 31.0957 18.6582C31.7754 16.2227 31.7754 11.1816 31.7754 11.1816C31.7754 11.1816 31.7754 6.08398 31.0957 3.70508ZM13.1406 15.7695V6.59375L21.1836 11.1816L13.1406 15.7695Z" fill="#928A88"/>
</svg>
